<svg id="Layer_1" data-name="Layer 1" xmlns="http://www.w3.org/2000/svg" xmlns:xlink="http://www.w3.org/1999/xlink" viewBox="0 0 26 26"><defs><style>.cls-1{fill:none;}.cls-2{clip-path:url(#clip-path);}.cls-3{fill:#ef64a9;}.cls-4{fill:#efeff9;}.cls-5{fill:#282832;}.cls-6{fill:#d1468b;}.cls-7{clip-path:url(#clip-path-2);}.cls-8{fill:#a0e65a;}</style><clipPath id="clip-path"><circle class="cls-1" cx="13" cy="13" r="13"/></clipPath><clipPath id="clip-path-2"><circle class="cls-1" cx="-20" cy="13" r="13"/></clipPath></defs><title>Artboard 4</title><g id="User_Image_1" data-name="User Image 1"><g class="cls-2"><path class="cls-3" d="M38.94,29.05s0-1.46-4.62-2.67-5.11-4.55-5.11-4.55c0-2.67,7.09-26.28-15.81-28.94C-3.38-9-3.38,12.59-2.65,17c.14,2.12,0,3.91,0,5.31h0c-.27,2.11-1.27,2.93-3.78,3.89-2.73,1-6.56,4.12-4.73,4.83a7.85,7.85,0,0,0,6.67-.57.33.33,0,0,1,.48.35,1.94,1.94,0,0,0,.87,2.08c2.79,2,5.88.19,6.91-.58a.52.52,0,0,1,.7.08c2.59,3,5.28-.39,5.28-.39,2.88,1.18,4.34,0,5-.8a.7.7,0,0,1,1-.13,11.67,11.67,0,0,0,7.18,2.15C28.24,33.19,25.81,31,27,31s1.95,0,7.06.24S38.94,29.05,38.94,29.05Z"/><circle class="cls-4" cx="12.44" cy="11.03" r="6.54"/><circle class="cls-5" cx="12.2" cy="11.95" r="2.82"/><path class="cls-4" d="M11.47,10.11a.94.94,0,1,1-.94-.94A.94.94,0,0,1,11.47,10.11Z"/><path class="cls-6" d="M17.2,17.17a1.32,1.32,0,0,1,.3.46,1,1,0,0,1,.06.34.54.54,0,0,1,0,.08v0h0l.25,0-.25-.05h0l.25,0-.25-.05a.4.4,0,0,0,.31.46.39.39,0,0,0,.46-.31,1.67,1.67,0,0,0,0-.24,1.91,1.91,0,0,0-.1-.6,2.2,2.2,0,0,0-.48-.75.4.4,0,0,0-.56,0,.39.39,0,0,0,0,.55Z"/><polygon class="cls-3" points="21.94 10.91 3.27 8.46 15.18 -1.51 21.94 10.91"/><polygon class="cls-3" points="21.02 13.42 4.97 12.92 10.89 20.68 21.02 13.42"/><path class="cls-6" d="M17.52,17.17h0a7,7,0,0,1-1.23.95,6.32,6.32,0,0,1-1.33.64,5.07,5.07,0,0,1-1.63.28,4.68,4.68,0,0,1-2.26-.59.38.38,0,0,0-.53.15.41.41,0,0,0,.16.54,5.48,5.48,0,0,0,2.63.68,5.79,5.79,0,0,0,1.91-.33,7.67,7.67,0,0,0,2.06-1.11,5.75,5.75,0,0,0,.79-.67.39.39,0,0,0-.57-.54Z"/></g></g><g id="User_Image_3" data-name="User Image 3"><g class="cls-7"><path class="cls-8" d="M15.84,9.12s-1.1-1.28-6.08,1.14-7.92-.13-7.92-.13c-2-2.36-13.61-28.45-35.72-13.51-16.22,11,.12,30,4.06,33.27,1.72,1.76,3,3.42,4,4.66h0c1.35,2,1.09,3.53-.39,6.27-1.61,3-2.66,8.57-.52,7.81a9.07,9.07,0,0,0,5.44-5.53.38.38,0,0,1,.69-.06,2.22,2.22,0,0,0,2.33,1.17c4-.36,5.31-4.27,5.63-5.72a.62.62,0,0,1,.68-.46c4.52.67,4.35-4.33,4.35-4.33,3.41-1.13,3.82-3.25,3.75-4.45a.82.82,0,0,1,.78-.86,13.53,13.53,0,0,0,7.92-3.53c4.7-4,.92-4.13,2-5s1.71-1.47,6.39-5.11S15.84,9.12,15.84,9.12Z"/></g></g></svg>