<svg id="Layer_1" data-name="Layer 1" xmlns="http://www.w3.org/2000/svg" xmlns:xlink="http://www.w3.org/1999/xlink" viewBox="0 0 26 26"><defs><style>.cls-1{fill:none;}.cls-2{clip-path:url(#clip-path);}.cls-3{fill:#fa9b53;}.cls-4{fill:#efeff9;}.cls-5{fill:#282832;}.cls-6{fill:#fa783c;}</style><clipPath id="clip-path"><circle class="cls-1" cx="13" cy="13" r="13"/></clipPath></defs><title>Artboard 2</title><g id="User_Image_4" data-name="User Image 4"><g class="cls-2"><path class="cls-3" d="M38.94,29.05s0-1.46-4.62-2.67-5.11-4.55-5.11-4.55c0-2.67,7.09-26.28-15.81-28.94C-3.38-9-3.38,12.59-2.65,17c.14,2.12,0,3.91,0,5.31h0c-.27,2.11-1.27,2.93-3.78,3.89-2.73,1-6.56,4.12-4.73,4.83a7.85,7.85,0,0,0,6.67-.57.33.33,0,0,1,.48.35,1.94,1.94,0,0,0,.87,2.08c2.79,2,5.88.19,6.91-.58a.52.52,0,0,1,.7.08c2.59,3,5.28-.39,5.28-.39,2.88,1.18,4.34,0,5-.8a.7.7,0,0,1,1-.13,11.67,11.67,0,0,0,7.18,2.15C28.24,33.19,25.81,31,27,31s1.95,0,7.06.24S38.94,29.05,38.94,29.05Z"/><circle class="cls-4" cx="8.53" cy="11.22" r="4.2" transform="translate(-1.78 1.61) rotate(-9.78)"/><circle class="cls-5" cx="9.32" cy="11.24" r="1.87"/><path class="cls-4" d="M7.44,9.83a.62.62,0,0,1,.22,1.23.63.63,0,0,1-.72-.51A.62.62,0,0,1,7.44,9.83Z"/><circle class="cls-4" cx="17.54" cy="11.22" r="4.2" transform="translate(-1.65 3.14) rotate(-9.78)"/><circle class="cls-5" cx="18.34" cy="11.24" r="1.87"/><path class="cls-4" d="M16.46,9.83a.62.62,0,1,1-.5.72A.62.62,0,0,1,16.46,9.83Z"/><path class="cls-6" d="M10.07,18.73a1.28,1.28,0,0,0-.29.46,1,1,0,0,0-.06.34v.1h0l-.24,0,.24-.05h0l-.24,0,.24-.05a.39.39,0,1,1-.76.15.84.84,0,0,1,0-.24,1.91,1.91,0,0,1,.1-.6,1.93,1.93,0,0,1,.48-.75.39.39,0,0,1,.55,0,.38.38,0,0,1,0,.55Z"/><path class="cls-6" d="M9.75,18.73h0a7.29,7.29,0,0,0,1.24.95,6.32,6.32,0,0,0,1.33.64A5,5,0,0,0,14,20.6,4.64,4.64,0,0,0,16.2,20a.38.38,0,0,1,.53.15.4.4,0,0,1-.16.54,5.45,5.45,0,0,1-2.62.68A5.75,5.75,0,0,1,12,21.05,7.67,7.67,0,0,1,10,19.94a5.08,5.08,0,0,1-.79-.67.39.39,0,0,1,.56-.54Z"/></g></g></svg>