<svg id="Layer_1" data-name="Layer 1" xmlns="http://www.w3.org/2000/svg" xmlns:xlink="http://www.w3.org/1999/xlink" viewBox="0 0 26 26"><defs><style>.cls-1{fill:none;}.cls-2{clip-path:url(#clip-path);}.cls-3{fill:#ef64a9;}.cls-4{clip-path:url(#clip-path-2);}.cls-5{fill:#a0e65a;}.cls-6{fill:#efeff9;}.cls-7{fill:#282832;}.cls-8{fill:#78cc3c;}</style><clipPath id="clip-path"><circle class="cls-1" cx="46" cy="13" r="13"/></clipPath><clipPath id="clip-path-2"><circle class="cls-1" cx="13" cy="13" r="13"/></clipPath></defs><title>Artboard 3</title><g id="User_Image_1" data-name="User Image 1"><g class="cls-2"><path class="cls-3" d="M71.94,29.05s0-1.46-4.62-2.67-5.11-4.55-5.11-4.55c0-2.67,7.09-26.28-15.81-28.94C29.62-9,29.62,12.59,30.35,17c.14,2.12,0,3.91,0,5.31h0c-.27,2.11-1.27,2.93-3.78,3.89-2.73,1-6.56,4.12-4.73,4.83a7.85,7.85,0,0,0,6.67-.57.33.33,0,0,1,.48.35,1.94,1.94,0,0,0,.87,2.08c2.79,2,5.88.19,6.91-.58a.52.52,0,0,1,.7.08c2.59,3,5.28-.39,5.28-.39,2.88,1.18,4.34,0,5-.8a.7.7,0,0,1,1-.13,11.67,11.67,0,0,0,7.18,2.15C61.24,33.19,58.81,31,60,31s1.95,0,7.06.24S71.94,29.05,71.94,29.05Z"/></g></g><g id="User_Image_3" data-name="User Image 3"><g class="cls-4"><path class="cls-5" d="M48.84,9.12s-1.1-1.28-6.08,1.14-7.92-.13-7.92-.13C32.83,7.77,21.23-18.32-.88-3.38c-16.22,11,.12,30,4.06,33.27,1.72,1.76,3,3.42,4,4.66h0c1.35,2,1.09,3.53-.39,6.27-1.61,3-2.66,8.57-.52,7.81a9.07,9.07,0,0,0,5.44-5.53.38.38,0,0,1,.69-.06,2.22,2.22,0,0,0,2.33,1.17c4-.36,5.31-4.27,5.63-5.72a.62.62,0,0,1,.68-.46c4.52.67,4.35-4.33,4.35-4.33,3.41-1.13,3.82-3.25,3.75-4.45a.82.82,0,0,1,.78-.86,13.53,13.53,0,0,0,7.92-3.53c4.7-4,.92-4.13,2-5s1.71-1.47,6.39-5.11S48.84,9.12,48.84,9.12Z"/><circle class="cls-6" cx="9.38" cy="14.93" r="3.06" transform="translate(-7.46 9.72) rotate(-40.66)"/><circle class="cls-7" cx="9.67" cy="15.43" r="1.36"/><path class="cls-6" d="M9.85,13.73a.46.46,0,0,1,0,.64.45.45,0,0,1-.64,0,.45.45,0,0,1,.69-.59Z"/><circle class="cls-6" cx="17.06" cy="13.7" r="3.06" transform="translate(-4.81 14.42) rotate(-40.66)"/><circle class="cls-7" cx="17.34" cy="14.2" r="1.36"/><path class="cls-6" d="M17.53,12.5a.45.45,0,1,1-.69.59.45.45,0,0,1,.05-.64A.46.46,0,0,1,17.53,12.5Z"/><circle class="cls-6" cx="11.58" cy="7.09" r="3.56" transform="translate(-1.82 9.26) rotate(-40.66)"/><circle class="cls-7" cx="11.91" cy="7.68" r="1.59"/><path class="cls-6" d="M12.12,5.7a.52.52,0,1,1-.74-.06A.52.52,0,0,1,12.12,5.7Z"/><circle class="cls-8" cx="14.34" cy="20.35" r="1.65"/><polygon class="cls-5" points="16.64 5.38 6.63 5.9 11.57 0.83 16.64 5.38"/><polygon class="cls-5" points="20.54 12.57 12.86 12.35 16.93 8.89 20.54 12.57"/><polygon class="cls-5" points="12.14 12.78 4.61 14.84 7.44 9.65 12.14 12.78"/></g></g></svg>