<?xml version="1.0" encoding="utf-8"?>
<!-- Generator: Adobe Illustrator 22.1.0, SVG Export Plug-In . SVG Version: 6.00 Build 0)  -->
<svg version="1.1" id="Layer_1" xmlns="http://www.w3.org/2000/svg" xmlns:xlink="http://www.w3.org/1999/xlink" x="0px" y="0px"
	 viewBox="0 0 26 26" style="enable-background:new 0 0 26 26;" xml:space="preserve">
<style type="text/css">
	.st0{clip-path:url(#SVGID_2_);}
	.st1{fill:#EF64A9;}
	.st2{fill:#EFEFF9;}
	.st3{fill:#282832;}
	.st4{fill:#D1468B;}
</style>
<title>Artboard 4</title>
<g id="User_Image_1">
	<g>
		<defs>
			<circle id="SVGID_1_" cx="13" cy="13" r="13"/>
		</defs>
		<clipPath id="SVGID_2_">
			<use xlink:href="#SVGID_1_"  style="overflow:visible;"/>
		</clipPath>
		<g class="st0">
			<path class="st1" d="M38.9,29c0,0,0-1.5-4.6-2.7s-5.1-4.6-5.1-4.6c0-2.7,7.1-26.3-15.8-28.9C-3.4-9-3.4,12.6-2.7,17
				c0.1,2.1,0,3.9,0,5.3l0,0c-0.3,2.1-1.3,2.9-3.8,3.9c-2.7,1-6.6,4.1-4.7,4.8c2.2,0.8,4.6,0.6,6.7-0.6c0.2-0.1,0.4,0,0.4,0.1
				c0,0.1,0,0.1,0,0.2c-0.2,0.8,0.2,1.6,0.9,2.1c2.8,2,5.9,0.2,6.9-0.6c0.2-0.2,0.5-0.1,0.7,0.1c2.6,3,5.3-0.4,5.3-0.4
				c2.9,1.2,4.3,0,5-0.8c0.2-0.3,0.7-0.4,1-0.1c0,0,0,0,0,0c2.1,1.5,4.6,2.2,7.2,2.1c5.3,0,2.9-2.2,4.1-2.2s2,0,7.1,0.2
				S38.9,29,38.9,29z"/>
			<circle class="st2" cx="12.4" cy="11" r="6.5"/>
			<circle class="st3" cx="12.2" cy="11.9" r="2.8"/>
			<path class="st2" d="M11.5,10.1c0,0.5-0.4,0.9-0.9,0.9s-0.9-0.4-0.9-0.9s0.4-0.9,0.9-0.9h0C11,9.2,11.5,9.6,11.5,10.1z"/>
			<path class="st4" d="M17.2,17.2c0.1,0.1,0.2,0.3,0.3,0.5c0,0.1,0.1,0.2,0.1,0.3c0,0,0,0.1,0,0.1l0,0l0,0h0.2l-0.2,0l0,0h0.2
				l-0.2,0c0,0.2,0.1,0.4,0.3,0.5c0.2,0,0.4-0.1,0.5-0.3c0,0,0,0,0,0c0-0.1,0-0.2,0-0.2c0-0.2,0-0.4-0.1-0.6
				c-0.1-0.3-0.3-0.5-0.5-0.8c-0.2-0.2-0.4-0.2-0.6,0c-0.2,0.2-0.2,0.4,0,0.5L17.2,17.2z"/>
			<polygon class="st1" points="21.9,10.9 3.3,8.5 15.2,-1.5 			"/>
			<polygon class="st1" points="21,13.4 5,12.9 10.9,20.7 			"/>
			<path class="st4" d="M17.5,17.2L17.5,17.2c-0.4,0.4-0.8,0.7-1.2,1c-0.4,0.3-0.9,0.5-1.3,0.6c-0.5,0.2-1.1,0.3-1.6,0.3
				c-0.8,0-1.6-0.2-2.3-0.6c-0.2-0.1-0.4,0-0.5,0.1c0,0,0,0,0,0c-0.1,0.2,0,0.4,0.2,0.5c0.8,0.4,1.7,0.7,2.6,0.7
				c0.7,0,1.3-0.1,1.9-0.3c0.7-0.3,1.4-0.6,2.1-1.1c0.3-0.2,0.5-0.4,0.8-0.7c0.1-0.2,0.1-0.4,0-0.6S17.7,17,17.5,17.2
				C17.5,17.2,17.5,17.2,17.5,17.2z"/>
		</g>
	</g>
</g>
</svg>
