<svg id="Layer_1" data-name="Layer 1" xmlns="http://www.w3.org/2000/svg" xmlns:xlink="http://www.w3.org/1999/xlink" viewBox="0 0 26 26"><defs><style>.cls-1,.cls-6{fill:none;}.cls-2{clip-path:url(#clip-path);}.cls-3{fill:#46a0d9;}.cls-4{fill:#efeff9;}.cls-5{fill:#282832;}.cls-6{stroke:#007ace;stroke-linecap:round;stroke-miterlimit:10;stroke-width:1.42px;}</style><clipPath id="clip-path"><circle id="SVGID" class="cls-1" cx="13" cy="13" r="13"/></clipPath></defs><title>Artboard 5</title><g id="User_Image_2" data-name="User Image 2"><g class="cls-2"><path class="cls-3" d="M38.94,30.61s0-1.46-4.62-2.67-5.11-4.55-5.11-4.55c0-2.67,7.09-26.28-15.81-28.94-16.78-1.94-16.78,19.7-16,24.08.14,2.12,0,3.91,0,5.31h0c-.27,2.11-1.27,2.93-3.78,3.89-2.73,1-6.56,4.12-4.73,4.83A7.85,7.85,0,0,0-4.49,32a.33.33,0,0,1,.48.35,1.94,1.94,0,0,0,.87,2.08c2.79,2,5.88.19,6.91-.58a.52.52,0,0,1,.7.08c2.59,3,5.28-.39,5.28-.39,2.88,1.18,4.34,0,5-.8a.7.7,0,0,1,1-.13,11.67,11.67,0,0,0,7.18,2.15c5.35,0,2.92-2.19,4.13-2.19s1.95,0,7.06.24S38.94,30.61,38.94,30.61Z"/><circle class="cls-4" cx="6.8" cy="12.8" r="3.81" transform="translate(-0.49 0.28) rotate(-2.24)"/><circle class="cls-5" cx="6.68" cy="13.51" r="1.7"/><path class="cls-4" d="M8.18,12a.57.57,0,0,1-.55.59A.56.56,0,0,1,7.05,12a.57.57,0,0,1,.54-.59A.57.57,0,0,1,8.18,12Z"/><circle class="cls-4" cx="19.01" cy="12.8" r="3.81" transform="translate(-0.49 0.75) rotate(-2.24)"/><circle class="cls-5" cx="18.9" cy="13.51" r="1.7"/><path class="cls-4" d="M20.39,12a.57.57,0,1,1-.59-.54A.56.56,0,0,1,20.39,12Z"/><path class="cls-6" d="M14.72,16.38c0,1.86-3.13,2-3.13,0"/></g></g></svg>