<svg id="Layer_1" data-name="Layer 1" xmlns="http://www.w3.org/2000/svg" viewBox="0 0 117.66 68.98"><defs><style>.cls-1{fill:none;}.cls-2{fill:#fff;}</style></defs><title>Artboard 7</title><path class="cls-1" d="M98.09,50.61h.61a4,4,0,0,1-.42-.6C98.22,50.21,98.16,50.41,98.09,50.61Z"/><path class="cls-1" d="M94.88,62.75c0-.12.07-.23.1-.35h-.35A1.72,1.72,0,0,1,94.88,62.75Z"/><path class="cls-2" d="M102.27,18.35a6.8,6.8,0,0,0,.37-2.22,6.73,6.73,0,0,0-6.73-6.74,6.56,6.56,0,0,0-1.85.26v0A7.07,7.07,0,0,0,82.27,4.37,11,11,0,0,0,63.36,6.65a8.65,8.65,0,0,0-1.54-.14,8.17,8.17,0,0,0-7.31,11.84Z"/><path class="cls-2" d="M51.3,32.77A4.66,4.66,0,0,0,48,34.11,5.63,5.63,0,0,0,39,30.26a10,10,0,0,0-18.34-3.4A9,9,0,0,0,9.12,40.59H54.78a4.68,4.68,0,0,0-3.48-7.82Z"/><path class="cls-2" d="M112.74,53.6a4.84,4.84,0,0,0-6.57-4.53,4.43,4.43,0,0,0,.19-1.27,4.34,4.34,0,0,0-8.08-2.22,8.7,8.7,0,0,0-16.6-.71,8.68,8.68,0,0,0-15.6,4.43,4.35,4.35,0,0,0-7.5,3.91A4.31,4.31,0,0,0,60.71,56h51.41A4.82,4.82,0,0,0,112.74,53.6Zm-14.65-3c.07-.2.13-.4.19-.6a4,4,0,0,0,.42.6Z"/><path class="cls-2" d="M117.58,60.92a2.46,2.46,0,0,0-1.21-1.57H87a2.77,2.77,0,0,0,2.42,4.12,2.72,2.72,0,0,0,1-.19,2.53,2.53,0,0,0-.11.73,2.48,2.48,0,0,0,4.62,1.27,5,5,0,0,0,9.49.4,5,5,0,0,0,8.93-2.53,2.48,2.48,0,0,0,4.28-2.23Zm-22.7,1.83a1.72,1.72,0,0,0-.25-.35H95C95,62.52,94.91,62.63,94.88,62.75Z"/><path class="cls-2" d="M26.86,43.66H.7a2.68,2.68,0,0,0,2,4.48,2.66,2.66,0,0,0,1.87-.76,3.23,3.23,0,0,0,3.21,2.88,3.16,3.16,0,0,0,2-.68,5.73,5.73,0,0,0,10.51,2,5.14,5.14,0,0,0,6.6-7.87Z"/><path class="cls-2" d="M80.45,23A3.57,3.57,0,0,0,85,26.36h0a3.72,3.72,0,0,0,3.71,3.72,3.64,3.64,0,0,0,2.48-1,5.8,5.8,0,0,0,10-1.2,4.29,4.29,0,0,0,5.11-4.22,4.32,4.32,0,0,0-.46-1.93H80.65A3.51,3.51,0,0,0,80.45,23Z"/></svg>