<svg id="Layer_1" data-name="Layer 1" xmlns="http://www.w3.org/2000/svg" viewBox="0 0 70.92 139.91"><defs><style>.cls-1{fill:none;}.cls-2{fill:#81819f;}.cls-3{fill:#707d8a;}.cls-4{fill:#647482;}.cls-5{fill:#fff;}.cls-6{fill:#acb1b9;}.cls-7{fill:#adb1b9;}.cls-8{fill:#e1e2e7;}.cls-9{fill:#89929e;}.cls-10{fill:#8c7c74;}.cls-11{fill:#b1b3c3;}.cls-12{fill:#d3d3dd;}.cls-13{fill:#8c97cc;}.cls-14{fill:#637482;}.cls-15{fill:#808b9f;}.cls-16{fill:#6b728c;}.cls-17{fill:#d4525a;}.cls-18{fill:#e2e4f3;}.cls-19{fill:#5a5b77;}.cls-20{fill:#575774;}.cls-21{fill:#f1f1f8;}.cls-22{fill:#8894ca;}.cls-23{fill:#c7c7d1;}.cls-24{fill:#89919d;}.cls-25{fill:#f09647;}.cls-26{fill:#ee7950;}.cls-27{fill:#7886c2;}</style></defs><title>Artboard 4</title><polygon class="cls-1" points="26.65 15.45 28.35 13.74 26.5 11.88 26.5 15.34 26.54 15.34 26.65 15.45"/><polygon class="cls-1" points="53.45 48.7 51.55 50.6 55.35 50.6 53.45 48.7"/><polygon class="cls-1" points="51.58 41.08 53.45 42.94 55.31 41.08 51.58 41.08"/><polygon class="cls-1" points="51.57 46.17 53.45 48.05 55.33 46.17 51.57 46.17"/><polygon class="cls-1" points="55.31 55.96 51.58 55.96 53.45 57.82 55.31 55.96"/><polygon class="cls-1" points="53.45 43.59 51.34 45.7 55.56 45.7 53.45 43.59"/><polygon class="cls-1" points="21.1 15.34 21.14 15.34 21.14 11.79 16.94 15.99 20.98 15.99 20.98 15.46 21.1 15.34"/><polygon class="cls-1" points="48.3 14.06 46.38 15.98 50.22 15.98 48.3 14.06"/><polygon class="cls-1" points="55.13 26.39 51.76 26.39 53.45 28.08 55.13 26.39"/><polygon class="cls-1" points="53.45 53.55 51.49 55.5 55.4 55.5 53.45 53.55"/><polygon class="cls-1" points="55.55 30.82 53.45 28.72 51.35 30.82 55.55 30.82"/><polygon class="cls-1" points="51.59 51.05 53.45 52.91 55.3 51.05 51.59 51.05"/><polygon class="cls-1" points="51.19 31.56 51.19 35.43 53.13 33.5 51.19 31.56"/><polygon class="cls-1" points="51.19 36.42 51.19 40.28 53.13 38.35 51.19 36.42"/><polygon class="cls-1" points="51.19 41.33 51.19 45.2 53.13 43.26 51.19 41.33"/><polygon class="cls-1" points="51.19 46.44 51.19 50.31 53.13 48.38 51.19 46.44"/><polygon class="cls-1" points="51.19 51.3 51.19 55.16 53.13 53.23 51.19 51.3"/><polygon class="cls-1" points="51.57 31.3 53.45 33.17 55.33 31.3 51.57 31.3"/><polygon class="cls-1" points="51.59 36.17 53.45 38.03 55.3 36.17 51.59 36.17"/><polygon class="cls-1" points="53.45 33.82 51.55 35.72 55.35 35.72 53.45 33.82"/><polygon class="cls-1" points="53.45 38.67 51.49 40.63 55.4 40.63 53.45 38.67"/><polygon class="cls-1" points="51.19 26.47 51.19 30.33 53.13 28.4 51.19 26.47"/><rect class="cls-1" x="0.89" y="69.47" width="1.15" height="5.54"/><rect class="cls-1" x="2.39" y="81.99" width="1.12" height="5.59"/><rect class="cls-1" x="3.85" y="81.99" width="1.12" height="5.59"/><rect class="cls-1" x="2.39" y="94.5" width="1.12" height="5.59"/><rect class="cls-1" x="0.89" y="81.99" width="1.15" height="5.59"/><rect class="cls-1" x="0.89" y="94.5" width="1.15" height="5.59"/><rect class="cls-1" x="3.85" y="94.5" width="1.12" height="5.59"/><rect class="cls-1" x="3.85" y="69.47" width="1.12" height="5.54"/><rect class="cls-1" x="2.39" y="69.47" width="1.12" height="5.54"/><polygon class="cls-1" points="51.19 56.21 51.19 60.07 53.13 58.14 51.19 56.21"/><path class="cls-1" d="M27.89,11H51l4.34-9.07A1.18,1.18,0,0,1,55,1.61Z"/><polygon class="cls-1" points="26.04 11.84 24.14 13.74 25.74 15.34 26.04 15.34 26.04 11.84"/><path class="cls-1" d="M56.19,2.13V11h9.1L56.55,2A1.14,1.14,0,0,1,56.19,2.13Z"/><rect class="cls-1" x="19.93" y="41.43" width="6.81" height="6.81"/><polygon class="cls-1" points="23.5 13.74 21.62 11.86 21.62 15.34 21.9 15.34 23.5 13.74"/><polygon class="cls-1" points="23.82 14.06 22.55 15.34 25.1 15.34 23.82 14.06"/><rect class="cls-1" x="8.65" y="41.43" width="6.81" height="6.81"/><rect class="cls-1" x="19.93" y="53.41" width="6.81" height="6.81"/><rect class="cls-1" x="8.65" y="53.41" width="6.81" height="6.81"/><rect class="cls-1" x="3.85" y="107.02" width="1.12" height="5.59"/><rect class="cls-1" x="0.89" y="107.02" width="1.15" height="5.59"/><rect class="cls-1" x="2.39" y="107.02" width="1.12" height="5.59"/><polygon class="cls-1" points="50.73 15.85 50.73 11.63 48.62 13.74 50.73 15.85"/><polygon class="cls-1" points="51.34 60.58 55.56 60.58 53.45 58.46 51.34 60.58"/><polygon class="cls-1" points="46.33 11.46 48.3 13.42 50.27 11.46 46.33 11.46"/><polygon class="cls-1" points="51.43 11.05 55.73 11.09 55.73 7.99 52.89 7.99 51.43 11.05"/><polygon class="cls-1" points="51.19 15.96 55.73 15.96 55.73 11.54 51.19 11.51 51.19 15.96"/><polygon class="cls-1" points="45.66 15.7 45.66 11.79 43.71 13.74 45.66 15.7"/><polygon class="cls-1" points="41.21 11.88 41.21 15.6 43.06 13.74 41.21 11.88"/><polygon class="cls-1" points="40.76 15.64 40.76 11.84 38.85 13.74 40.76 15.64"/><polygon class="cls-1" points="46.11 15.61 47.98 13.74 46.11 11.88 46.11 15.61"/><polygon class="cls-1" points="53.11 7.53 55.73 7.53 55.73 5.18 54.24 5.18 53.11 7.53"/><polygon class="cls-1" points="41.45 15.99 45.32 15.99 43.39 14.06 41.45 15.99"/><polygon class="cls-1" points="56.49 15.99 60.35 15.99 58.42 14.06 56.49 15.99"/><polygon class="cls-1" points="60.39 11.46 56.45 11.46 58.42 13.42 60.39 11.46"/><polygon class="cls-1" points="36.6 15.99 40.47 15.99 38.53 14.06 36.6 15.99"/><polygon class="cls-1" points="56.22 11.86 56.22 15.62 58.1 13.74 56.22 11.86"/><polygon class="cls-1" points="61.1 11.88 61.1 15.6 62.95 13.74 61.1 11.88"/><polygon class="cls-1" points="60.64 15.64 60.64 11.84 58.74 13.74 60.64 15.64"/><polygon class="cls-1" points="66 15.99 70.21 15.99 66 11.79 66 15.99"/><polygon class="cls-1" points="61.34 15.99 65.21 15.99 63.27 14.06 61.34 15.99"/><polygon class="cls-1" points="65.54 15.68 65.54 11.8 63.6 13.74 65.54 15.68"/><polygon class="cls-1" points="65.24 11.46 61.31 11.46 63.27 13.42 65.24 11.46"/><polygon class="cls-1" points="54.45 4.72 55.73 4.72 55.73 2.13 55.7 2.13 54.45 4.72"/><polygon class="cls-1" points="35.55 11.46 31.62 11.46 33.59 13.42 35.55 11.46"/><polygon class="cls-1" points="23.82 13.42 25.79 11.46 21.85 11.46 23.82 13.42"/><polygon class="cls-1" points="55.73 35.46 55.73 31.53 53.77 33.5 55.73 35.46"/><polygon class="cls-1" points="55.73 30.37 55.73 26.43 53.77 28.4 55.73 30.37"/><polygon class="cls-1" points="26.74 15.99 30.61 15.99 28.68 14.06 26.74 15.99"/><polygon class="cls-1" points="31.4 11.88 31.4 15.61 33.27 13.74 31.4 11.88"/><polygon class="cls-1" points="30.95 15.69 30.95 11.79 29 13.74 30.95 15.69"/><polygon class="cls-1" points="55.73 55.2 55.73 51.26 53.77 53.23 55.73 55.2"/><polygon class="cls-1" points="55.73 60.11 55.73 56.18 53.77 58.14 55.73 60.11"/><polygon class="cls-1" points="55.73 40.32 55.73 36.38 53.77 38.35 55.73 40.32"/><polygon class="cls-1" points="55.73 45.23 55.73 41.3 53.77 43.26 55.73 45.23"/><polygon class="cls-1" points="55.73 50.34 55.73 46.41 53.77 48.38 55.73 50.34"/><polygon class="cls-1" points="30.64 11.46 26.71 11.46 28.68 13.42 30.64 11.46"/><polygon class="cls-1" points="36.48 12.01 36.48 15.48 38.21 13.74 36.48 12.01"/><polygon class="cls-1" points="35.85 15.69 35.85 11.79 33.91 13.74 35.85 15.69"/><polygon class="cls-1" points="31.66 15.99 35.52 15.99 33.59 14.06 31.66 15.99"/><polygon class="cls-1" points="45.35 11.46 41.42 11.46 43.39 13.42 45.35 11.46"/><polygon class="cls-1" points="40.5 11.46 36.56 11.46 38.53 13.42 40.5 11.46"/><path class="cls-2" d="M65.29,11h.48l.16.07,0,.06h0l.07.07,0-.1L56.87,1.65a1,1,0,0,1-.32.33Z"/><path class="cls-2" d="M55,1.61a1.08,1.08,0,0,1-.13-.43L26.5,11h1.39Z"/><rect class="cls-3" x="0.89" y="69.42" width="1.15" height="0.05"/><rect class="cls-3" x="3.85" y="69.42" width="1.12" height="0.05"/><rect class="cls-3" x="2.39" y="69.42" width="1.12" height="0.05"/><polygon class="cls-3" points="0.11 76.06 0 75.95 0 76 0.11 76.11 5.03 76.11 5.03 76.06 0.11 76.06"/><path class="cls-3" d="M5,81.9v-.26H.82l-.2.08-.08.2v5.66H.11L0,87.69v.83l.11.1H5V81.9ZM2,87.58H.89V82H2Zm1.46,0H2.39V82H3.5Zm1.47,0H3.85V82H5Z"/><path class="cls-3" d="M5,94.41v-.26H.82l-.2.09-.08.2v5.65H.11L0,100.2V101l.11.11H5V94.41Zm-3,5.68H.89V94.5H2Zm1.46,0H2.39V94.5H3.5Zm1.47,0H3.85V94.5H5Z"/><path class="cls-3" d="M5,106.93v-.26H.82l-.2.08-.08.2v5.66H.11l-.11.1v.84l.11.1H5v-6.72Zm-3,5.68H.89V107H2Zm1.46,0H2.39V107H3.5Zm1.47,0H3.85V107H5Z"/><polygon class="cls-3" points="4.97 49.98 3.85 49.98 3.5 49.98 2.39 49.98 2.04 49.98 0.89 49.98 0.54 49.98 0.11 49.98 0 50.09 0 50.92 0.11 51.03 5.03 51.03 5.03 49.98 4.97 49.98"/><polygon class="cls-3" points="4.97 62.5 3.85 62.5 3.5 62.5 2.39 62.5 2.04 62.5 0.89 62.5 0.54 62.5 0.11 62.5 0 62.6 0 63.44 0.11 63.54 5.03 63.54 5.03 62.5 4.97 62.5"/><polygon class="cls-3" points="0.82 69.13 5.03 69.13 5.03 69.07 0.82 69.07 0.62 69.16 0.54 69.36 0.54 69.41 0.62 69.21 0.82 69.13"/><rect class="cls-3" x="3.85" y="75.01" width="1.12" height="0.05"/><polygon class="cls-3" points="0.54 75.06 0.54 75.01 0.11 75.01 0 75.12 0 75.17 0.11 75.06 0.54 75.06"/><rect class="cls-3" x="2.39" y="75.01" width="1.12" height="0.05"/><rect class="cls-3" x="0.89" y="75.01" width="1.15" height="0.05"/><path class="cls-4" d="M5,76.06V69.12H.82l-.2.09-.08.2v5.65H.11L0,75.17V76l.11.11ZM3.85,75V69.42H5v5.64H3.85ZM2.39,75V69.42H3.5v5.64H2.39ZM.89,75V69.42H2v5.64H.89Z"/><path class="cls-5" d="M34.62,76.42c.13,0,.26,0,.38,0-.14,0-.29,0-.44,0Z"/><path class="cls-5" d="M34.62,89c.13,0,.26,0,.38,0a3.13,3.13,0,0,1-.44,0Z"/><path class="cls-5" d="M34.62,93.8c-.13,0-.26,0-.39,0,.15,0,.29,0,.45,0Z"/><path class="cls-5" d="M34.62,68.7a2.45,2.45,0,0,0-.39,0,3.27,3.27,0,0,1,.45,0Z"/><path class="cls-5" d="M34.62,81.25c-.13,0-.26,0-.39,0a3.27,3.27,0,0,1,.45,0Z"/><path class="cls-5" d="M34.62,114.07a2.58,2.58,0,0,0,.39,0,3.42,3.42,0,0,1-.45,0Z"/><path class="cls-5" d="M34.62,101.52a2.33,2.33,0,0,0,.38,0,3.13,3.13,0,0,1-.44,0Z"/><path class="cls-5" d="M34.62,106.35c-.13,0-.26,0-.39,0,.15,0,.29,0,.45,0Z"/><rect class="cls-6" x="30.2" y="37.38" width="0.01" height="23.62"/><path class="cls-7" d="M30.17,64.11V61h0V37.38H5v80.84H65v-54H30.17ZM15.46,113.62H8.65v-6.81h6.81Zm0-12.55H8.65V94.26h6.81Zm0-12.55H8.65V81.7h6.81Zm0-12.56H8.65V69.15h6.81Zm0-15.74H8.65V53.41h6.81Zm0-12H8.65V41.43h6.81Zm11.28,65.38H19.93v-6.81h6.81Zm0-12.55H19.93V94.26h6.81Zm0-12.55H19.93V81.7h6.81Zm0-12.56H19.93V69.15h6.81Zm0-15.74H19.93V53.41h6.81Zm0-12H19.93V41.43h6.81Zm27,20.91h6.81V76H53.77Zm0,12.55h6.81v6.82H53.77Zm0,12.56h6.81v6.81H53.77Zm0,12.55h6.81v6.81H53.77ZM42.49,69.15H49.3V76H42.49Zm0,12.55H49.3v6.82H42.49Zm0,12.56H49.3v6.81H42.49Zm0,12.55H49.3v6.81H42.49ZM30.85,71.73l.08-.24a3.82,3.82,0,0,1,.15-.48,2.2,2.2,0,0,1,.15-.26,3,3,0,0,1,.22-.39l.2-.25c.09-.1.17-.21.27-.31l.26-.21a2,2,0,0,1,.32-.25,1.64,1.64,0,0,1,.29-.16,3.13,3.13,0,0,1,.36-.19l.33-.1c.13,0,.26-.09.39-.12l.36,0a2.45,2.45,0,0,1,.39,0h.06a3.86,3.86,0,0,1,3.8,3.92,4.91,4.91,0,0,1-.09.77l-.08.24a3.86,3.86,0,0,1-.16.48c0,.09-.09.17-.14.26a3.84,3.84,0,0,1-.22.39l-.21.24a2.69,2.69,0,0,1-.27.32l-.25.21c-.11.08-.21.18-.32.25a2.85,2.85,0,0,1-.3.16,3,3,0,0,1-.36.19l-.33.1a2.5,2.5,0,0,1-.39.11,2.09,2.09,0,0,1-.36,0c-.12,0-.25,0-.38,0h-.06a3.86,3.86,0,0,1-3.8-3.92A3.25,3.25,0,0,1,30.85,71.73Zm0,12.55.08-.24a3.82,3.82,0,0,1,.15-.48,2.4,2.4,0,0,1,.16-.27,2,2,0,0,1,.21-.38,2.52,2.52,0,0,1,.21-.25l.26-.31.26-.21a2.51,2.51,0,0,1,.32-.25,2.85,2.85,0,0,1,.3-.16,3,3,0,0,1,.35-.19l.34-.1a2.38,2.38,0,0,1,.38-.11,2.2,2.2,0,0,1,.36,0c.13,0,.26,0,.39,0h.06a3.86,3.86,0,0,1,3.8,3.92,4.91,4.91,0,0,1-.09.77l-.09.26a2.74,2.74,0,0,1-.15.46c0,.09-.1.18-.15.27a2.82,2.82,0,0,1-.21.38l-.21.24a4.15,4.15,0,0,1-.27.32l-.26.21a2.42,2.42,0,0,1-.31.25,2.85,2.85,0,0,1-.3.16,2.47,2.47,0,0,1-.36.19l-.33.1c-.13,0-.25.09-.39.12s-.24,0-.36,0-.25,0-.38,0h-.06a3.86,3.86,0,0,1-3.8-3.92A3.31,3.31,0,0,1,30.85,84.28Zm0,12.55.08-.24a3.82,3.82,0,0,1,.15-.48c0-.09.11-.18.16-.27a1.68,1.68,0,0,1,.21-.37,2.65,2.65,0,0,1,.21-.26l.26-.31.26-.21a2.51,2.51,0,0,1,.32-.25,2.85,2.85,0,0,1,.3-.16,3,3,0,0,1,.35-.19l.34-.1a2.38,2.38,0,0,1,.38-.11,2.2,2.2,0,0,1,.36,0c.13,0,.26,0,.39,0h.06a3.87,3.87,0,0,1,3.8,3.92,4.77,4.77,0,0,1-.09.77l-.08.25a3.71,3.71,0,0,1-.16.47c0,.09-.1.18-.14.27s-.14.26-.22.38l-.21.25a4,4,0,0,1-.27.31l-.26.21a2.42,2.42,0,0,1-.31.25,1.73,1.73,0,0,1-.3.16,2,2,0,0,1-.36.19l-.33.1c-.13,0-.25.09-.39.12s-.24,0-.36,0a2.33,2.33,0,0,1-.38,0h-.06a3.86,3.86,0,0,1-3.8-3.92A3.31,3.31,0,0,1,30.85,96.83Zm0,12.55.08-.24a4.42,4.42,0,0,1,.15-.48c0-.09.11-.18.16-.27a1.68,1.68,0,0,1,.21-.37,2.65,2.65,0,0,1,.21-.26l.26-.31.27-.21a1.89,1.89,0,0,1,.31-.25,2.85,2.85,0,0,1,.3-.16c.12-.06.23-.13.35-.18s.23-.07.34-.11a2.72,2.72,0,0,1,.38-.11l.36,0c.13,0,.26,0,.39,0h.06a3.87,3.87,0,0,1,3.8,3.92,4.64,4.64,0,0,1-.09.77l-.08.25a3.71,3.71,0,0,1-.16.47A2.34,2.34,0,0,1,38,112c-.07.13-.13.26-.21.38l-.21.25a4,4,0,0,1-.27.31l-.26.21a2.42,2.42,0,0,1-.31.25,2.91,2.91,0,0,1-.3.17c-.12.06-.23.13-.35.18a2.19,2.19,0,0,1-.34.1c-.13,0-.25.09-.39.12s-.24,0-.35,0a2.58,2.58,0,0,1-.39,0h-.06a3.85,3.85,0,0,1-3.8-3.91A3.33,3.33,0,0,1,30.85,109.38Z"/><polygon class="cls-8" points="30.27 139.89 30.2 139.82 5.03 139.82 5.03 139.91 30.32 139.91 30.32 139.89 30.27 139.89"/><rect class="cls-8" x="38.95" y="139.82" width="26.01" height="0.09"/><path class="cls-8" d="M5,126.84v13H30.19V125.55l.08-.08H39v14.35H65V121.39H5Zm37.62-1.22H61.13v9.89H42.65Zm-34.74,0H26.39v9.89H7.91Z"/><path class="cls-9" d="M51,61l-.06,0H30.21v3.11H65v.07h.94a.29.29,0,0,0,.3-.3V61.31a.3.3,0,0,0-.3-.31H56L56,61Z"/><polygon class="cls-10" points="50.97 61.03 55.96 61.03 56.02 61.01 56.02 61.01 50.91 61.01 50.97 61.03"/><polygon class="cls-7" points="30.17 61.01 30.17 64.11 30.2 64.11 30.21 64.11 30.21 64.09 30.21 61.01 30.2 61.01 30.17 61.01"/><polygon class="cls-7" points="30.21 64.11 30.2 64.11 30.17 64.11 30.17 64.18 64.97 64.18 64.97 64.11 30.21 64.11"/><polygon class="cls-11" points="38.84 139.82 38.77 139.89 30.32 139.89 30.32 139.91 38.95 139.91 38.95 139.82 38.84 139.82"/><polygon class="cls-8" points="38.85 125.55 38.85 139.81 38.84 139.82 38.95 139.82 38.95 125.47 30.32 125.47 30.32 125.47 38.77 125.47 38.85 125.55"/><path class="cls-12" d="M17.81,135.51h8.58v-9.89H7.91v9.89h9.9ZM9.16,127H25v7.21H9.16Z"/><rect class="cls-13" x="9.16" y="126.96" width="15.88" height="7.21"/><path class="cls-12" d="M52.55,135.51h8.58v-9.89H42.65v9.89h9.9ZM43.9,127H59.78v7.21H43.9Z"/><rect class="cls-13" x="43.9" y="126.96" width="15.88" height="7.21"/><path class="cls-14" d="M30.33,139.89h8.44l.07-.07h0V125.55l-.08-.08h-8.5l-.08.08v14.26h0l.07.07Zm.56-13.75h7.22v13.19H30.89Z"/><path class="cls-15" d="M38.11,139.33V126.14H30.89v13.19h7.22Zm-5.74-10.22.06-.06,1.26,0,.82-.68v0a.24.24,0,0,1,.24-.24h0a.25.25,0,0,1,.24.25v.07l.74.7,1.33,0,.06.06-.1,3.08-.06.06-4.63-.14-.06-.06Zm-.3,4.7h5.14a.18.18,0,0,1,.18.18v2.27a.18.18,0,0,1-.18.18.18.18,0,0,1-.19-.18v-2.09h-5a.18.18,0,0,1,0-.36Z"/><path class="cls-16" d="M32.07,134.17h5V134a.18.18,0,0,1,.19-.18H32.07a.18.18,0,0,0,0,.36Z"/><polygon class="cls-15" points="34.76 128.62 34.74 128.62 34.6 128.57 33.97 129.1 35.45 129.14 34.88 128.59 34.76 128.62"/><path class="cls-17" d="M34.6,128.57l.15.05h0l.13,0,.57.55h.28l-.74-.7v-.07a.25.25,0,0,0-.24-.25h0a.24.24,0,0,0-.24.24v0l-.82.68H34Z"/><path class="cls-18" d="M37,132.39l.06-.06.1-3.08-.06-.06-1.33,0h-.28l-1.48,0h-.28l-1.26,0-.06.06-.1,3.08.06.06Zm-4.37-3,0,0,4.24.13,0,0-.09,2.61,0,0L32.53,132l0,0Z"/><path class="cls-17" d="M36.77,132.12l0,0,.09-2.61,0,0-4.24-.13,0,0L32.5,132l0,0ZM35.63,131v-.73h.61l.12.12v.1l0,.52v.13h-.22v-.67h-.28v.65l0,0h-.17l0,0Zm-.88-.08,0-.43v-.13l.12-.11h.55v.2H35v.14h.39v.15l0,0H35V131h.45v.18h-.56l-.11-.12V131Zm-.82,0,0-.53v-.2h.55l.12.12v.38l-.13.12h-.32v.23l0,0H34l0,0Zm-.94-.08,0-.46v-.11l.12-.12h.5l.11.12V131l-.12.11h-.49L33,131v-.07Z"/><polygon class="cls-17" points="33.53 130.45 33.23 130.44 33.22 130.91 33.52 130.92 33.53 130.45"/><rect class="cls-17" x="34.18" y="130.45" width="0.23" height="0.25" transform="translate(-97.29 160.79) rotate(-88.22)"/><path class="cls-18" d="M33,131l.12.12h.49l.12-.11v-.64l-.11-.12h-.5l-.12.12v.11l0,.46V131Zm.23-.55h.31l0,.47h-.3Z"/><path class="cls-18" d="M34.13,131.15l0,0v-.23h.32l.13-.12v-.38l-.12-.12H34v.2l0,.53v.12l0,0Zm0-.69h.25v.22h-.25Z"/><polygon class="cls-18" points="34.76 131.04 34.87 131.16 34.9 131.17 34.92 131.18 34.96 131.18 35.27 131.19 35.41 131.19 35.42 131.19 35.43 131.17 35.44 131.01 35.43 130.99 35.41 130.98 35.23 130.98 35.09 130.97 34.98 130.97 34.98 130.96 34.98 130.82 34.99 130.82 35.12 130.82 35.23 130.82 35.35 130.83 35.38 130.81 35.38 130.68 35.38 130.66 35.36 130.65 35.22 130.65 35.1 130.65 34.99 130.64 34.99 130.64 34.99 130.5 35 130.49 35.13 130.49 35.33 130.5 35.43 130.5 35.45 130.5 35.45 130.48 35.46 130.32 35.45 130.3 35.44 130.29 35.33 130.29 34.98 130.28 34.95 130.28 34.92 130.28 34.9 130.29 34.78 130.4 34.77 130.43 34.77 130.45 34.77 130.53 34.75 130.96 34.75 131 34.75 131.02 34.76 131.04"/><polygon class="cls-18" points="35.82 131.2 35.85 131.18 35.85 131.04 35.86 130.66 35.87 130.55 35.88 130.53 35.89 130.53 36.15 130.53 36.16 130.54 36.17 130.56 36.16 130.77 36.15 131.06 36.15 131.19 36.16 131.21 36.17 131.22 36.35 131.22 36.37 131.21 36.38 131.2 36.38 131.07 36.4 130.55 36.4 130.5 36.4 130.47 36.39 130.45 36.27 130.33 36.25 130.32 36.23 130.32 36.16 130.32 35.9 130.31 35.67 130.3 35.66 130.31 35.65 130.33 35.64 130.59 35.63 131.04 35.62 131.17 35.65 131.2 35.82 131.2"/><path class="cls-19" d="M37.21,134.17H37v2.09a.18.18,0,0,0,.19.18.18.18,0,0,0,.18-.18V134A.18.18,0,0,1,37.21,134.17Z"/><path class="cls-20" d="M37,134v.18h.19a.18.18,0,0,0,0-.36A.18.18,0,0,0,37,134Z"/><path class="cls-21" d="M49.3,106.81H42.49v6.81H49.3Zm-.92,5.88h-5v-5h5Z"/><rect class="cls-22" x="43.42" y="107.73" width="4.96" height="4.96"/><path class="cls-21" d="M60.58,106.81H53.77v6.81h6.81Zm-.92,5.88h-5v-5h5Z"/><rect class="cls-22" x="54.7" y="107.73" width="4.96" height="4.96"/><path class="cls-21" d="M8.65,113.62h6.81v-6.81H8.65Zm.93-5.89h5v5h-5Z"/><rect class="cls-22" x="9.58" y="107.73" width="4.96" height="4.96"/><path class="cls-21" d="M19.93,113.62h6.81v-6.81H19.93Zm.93-5.89h5v5h-5Z"/><rect class="cls-22" x="20.86" y="107.73" width="4.96" height="4.96"/><path class="cls-21" d="M34.56,114.07a3.42,3.42,0,0,0,.45,0c.11,0,.24,0,.35,0s.26-.08.39-.12a2.19,2.19,0,0,0,.34-.1c.12,0,.23-.12.35-.18a2.91,2.91,0,0,0,.3-.17,2.42,2.42,0,0,0,.31-.25l.26-.21a4,4,0,0,0,.27-.31l.21-.25c.08-.12.14-.25.21-.38a2.34,2.34,0,0,0,.15-.27,3.71,3.71,0,0,0,.16-.47l.08-.25a4.64,4.64,0,0,0,.09-.77,3.87,3.87,0,0,0-3.8-3.92c-.16,0-.3,0-.45,0l-.36,0a2.72,2.72,0,0,0-.38.11c-.11,0-.23.06-.34.11s-.23.12-.35.18a2.85,2.85,0,0,0-.3.16,1.89,1.89,0,0,0-.31.25l-.27.21-.26.31a2.65,2.65,0,0,0-.21.26,1.68,1.68,0,0,0-.21.37c0,.09-.12.18-.16.27a4.42,4.42,0,0,0-.15.48l-.08.24a3.33,3.33,0,0,0-.09.78A3.85,3.85,0,0,0,34.56,114.07Zm-3-3.9h0a3.07,3.07,0,0,1,3.07-3h.05a3.07,3.07,0,0,1,3,3.07v.05a3.08,3.08,0,0,1-3.07,3h0a3.07,3.07,0,0,1-3-3.07Z"/><path class="cls-22" d="M37.41,109.81a2.83,2.83,0,0,0-2.75-2.43h0a2.83,2.83,0,0,0-2.83,2.79h0v0a2.9,2.9,0,0,0,.29,1.24,3,3,0,0,0,5.33-1.65Z"/><path class="cls-23" d="M34.57,113.29h0a3.08,3.08,0,0,0,3.07-3v-.05a3.07,3.07,0,0,0-3-3.07h-.05a3.07,3.07,0,0,0-3.07,3h0v0A3.07,3.07,0,0,0,34.57,113.29Zm-2.78-3.07v0h0a2.83,2.83,0,0,1,2.83-2.79h0a2.83,2.83,0,0,1,2.75,2.43,3,3,0,0,1-5.33,1.65A2.9,2.9,0,0,1,31.79,110.22Z"/><path class="cls-21" d="M49.3,94.26H42.49v6.81H49.3Zm-.92,5.88h-5v-5h5Z"/><rect class="cls-22" x="43.42" y="95.18" width="4.96" height="4.96"/><path class="cls-21" d="M60.58,94.26H53.77v6.81h6.81Zm-.92,5.88h-5v-5h5Z"/><rect class="cls-22" x="54.7" y="95.18" width="4.96" height="4.96"/><path class="cls-21" d="M8.65,101.07h6.81V94.26H8.65Zm.93-5.89h5v5h-5Z"/><rect class="cls-22" x="9.58" y="95.18" width="4.96" height="4.96"/><path class="cls-21" d="M19.93,101.07h6.81V94.26H19.93Zm.93-5.89h5v5h-5Z"/><rect class="cls-22" x="20.86" y="95.18" width="4.96" height="4.96"/><path class="cls-21" d="M34.56,101.52a3.13,3.13,0,0,0,.44,0c.12,0,.25,0,.36,0s.26-.08.39-.12l.33-.1a2,2,0,0,0,.36-.19,1.73,1.73,0,0,0,.3-.16,2.42,2.42,0,0,0,.31-.25l.26-.21a4,4,0,0,0,.27-.31l.21-.25c.08-.12.15-.25.22-.38s.1-.18.14-.27a3.71,3.71,0,0,0,.16-.47l.08-.25a4.77,4.77,0,0,0,.09-.77,3.87,3.87,0,0,0-3.8-3.92c-.16,0-.3,0-.45,0a2.2,2.2,0,0,0-.36,0,2.38,2.38,0,0,0-.38.11l-.34.1a3,3,0,0,0-.35.19,2.85,2.85,0,0,0-.3.16,2.51,2.51,0,0,0-.32.25l-.26.21-.26.31a2.65,2.65,0,0,0-.21.26,1.68,1.68,0,0,0-.21.37c0,.09-.12.18-.16.27a3.82,3.82,0,0,0-.15.48l-.08.24a3.31,3.31,0,0,0-.09.77A3.86,3.86,0,0,0,34.56,101.52Zm-3-3.9h0a3.06,3.06,0,0,1,3.07-3h.05a3.07,3.07,0,0,1,3,3.07v0a3.07,3.07,0,0,1-3.07,3h0a3.06,3.06,0,0,1-3-3.07Z"/><path class="cls-22" d="M37.41,97.25a2.83,2.83,0,0,0-2.75-2.42h0a2.83,2.83,0,0,0-2.83,2.79h0v0a2.78,2.78,0,0,0,.3,1.25,3,3,0,0,0,2.23,1A3.07,3.07,0,0,0,37.41,97.25Z"/><path class="cls-23" d="M34.57,100.73h0a3.07,3.07,0,0,0,3.07-3v0a3.07,3.07,0,0,0-3-3.07h-.05a3.06,3.06,0,0,0-3.07,3h0v0A3.06,3.06,0,0,0,34.57,100.73Zm-2.78-3.07v0h0a2.83,2.83,0,0,1,2.83-2.79h0a2.83,2.83,0,0,1,2.75,2.42A3.07,3.07,0,0,1,34.32,100a3,3,0,0,1-2.23-1A2.78,2.78,0,0,1,31.79,97.66Z"/><path class="cls-21" d="M49.3,81.7H42.49v6.82H49.3Zm-.92,5.89h-5v-5h5Z"/><rect class="cls-22" x="43.42" y="82.63" width="4.96" height="4.96"/><path class="cls-21" d="M60.58,81.7H53.77v6.82h6.81Zm-.92,5.89h-5v-5h5Z"/><rect class="cls-22" x="54.7" y="82.63" width="4.96" height="4.96"/><path class="cls-21" d="M8.65,88.52h6.81V81.7H8.65Zm.93-5.89h5v5h-5Z"/><rect class="cls-22" x="9.58" y="82.63" width="4.96" height="4.96"/><path class="cls-21" d="M19.93,88.52h6.81V81.7H19.93Zm.93-5.89h5v5h-5Z"/><rect class="cls-22" x="20.86" y="82.63" width="4.96" height="4.96"/><path class="cls-21" d="M34.56,89a3.13,3.13,0,0,0,.44,0c.12,0,.25,0,.36,0s.26-.08.39-.12l.33-.1a2.47,2.47,0,0,0,.36-.19,2.85,2.85,0,0,0,.3-.16,2.42,2.42,0,0,0,.31-.25l.26-.21a4.15,4.15,0,0,0,.27-.32l.21-.24a2.82,2.82,0,0,0,.21-.38c0-.09.11-.18.15-.27a2.74,2.74,0,0,0,.15-.46l.09-.26a4.91,4.91,0,0,0,.09-.77,3.86,3.86,0,0,0-3.8-3.92,3.27,3.27,0,0,0-.45,0,2.2,2.2,0,0,0-.36,0,2.38,2.38,0,0,0-.38.11l-.34.1a3,3,0,0,0-.35.19,2.85,2.85,0,0,0-.3.16,2.51,2.51,0,0,0-.32.25l-.26.21-.26.31a2.52,2.52,0,0,0-.21.25,2,2,0,0,0-.21.38,2.4,2.4,0,0,0-.16.27,3.82,3.82,0,0,0-.15.48l-.08.24a3.31,3.31,0,0,0-.09.77A3.86,3.86,0,0,0,34.56,89Zm-3-3.91h0a3.06,3.06,0,0,1,3.07-3h.05a3.06,3.06,0,0,1,3,3.07v0a3.07,3.07,0,0,1-3.07,3h0a3.06,3.06,0,0,1-3-3.07Z"/><path class="cls-22" d="M37.41,84.7a2.83,2.83,0,0,0-2.75-2.42h0a2.83,2.83,0,0,0-2.83,2.79h0v0a2.78,2.78,0,0,0,.3,1.25,3,3,0,0,0,5.32-1.66Z"/><path class="cls-23" d="M34.57,88.18h0a3.07,3.07,0,0,0,3.07-3v0a3.06,3.06,0,0,0-3-3.07h-.05a3.06,3.06,0,0,0-3.07,3h0v0A3.06,3.06,0,0,0,34.57,88.18Zm-2.78-3.07v0h0a2.83,2.83,0,0,1,2.83-2.79h0a2.83,2.83,0,0,1,2.75,2.42,3,3,0,0,1-5.32,1.66A2.78,2.78,0,0,1,31.79,85.11Z"/><path class="cls-21" d="M49.3,69.15H42.49V76H49.3ZM48.38,75h-5v-5h5Z"/><rect class="cls-22" x="43.42" y="70.08" width="4.96" height="4.96"/><path class="cls-21" d="M60.58,69.15H53.77V76h6.81ZM59.66,75h-5v-5h5Z"/><rect class="cls-22" x="54.7" y="70.08" width="4.96" height="4.96"/><path class="cls-21" d="M8.65,76h6.81V69.15H8.65Zm.93-5.88h5v5h-5Z"/><rect class="cls-22" x="9.58" y="70.08" width="4.96" height="4.96"/><path class="cls-21" d="M19.93,76h6.81V69.15H19.93Zm.93-5.88h5v5h-5Z"/><rect class="cls-22" x="20.86" y="70.08" width="4.96" height="4.96"/><path class="cls-21" d="M34.56,76.42c.15,0,.3,0,.44,0a2.09,2.09,0,0,0,.36,0,2.5,2.5,0,0,0,.39-.11l.33-.1a3,3,0,0,0,.36-.19,2.85,2.85,0,0,0,.3-.16c.11-.07.21-.17.32-.25l.25-.21a2.69,2.69,0,0,0,.27-.32l.21-.24a3.84,3.84,0,0,0,.22-.39c.05-.09.1-.17.14-.26a3.86,3.86,0,0,0,.16-.48l.08-.24a4.91,4.91,0,0,0,.09-.77,3.86,3.86,0,0,0-3.8-3.92,3.27,3.27,0,0,0-.45,0l-.36,0c-.13,0-.26.08-.39.12l-.33.1a3.13,3.13,0,0,0-.36.19,1.64,1.64,0,0,0-.29.16,2,2,0,0,0-.32.25l-.26.21c-.1.1-.18.21-.27.31l-.2.25a3,3,0,0,0-.22.39,2.2,2.2,0,0,0-.15.26,3.82,3.82,0,0,0-.15.48l-.08.24a3.25,3.25,0,0,0-.09.77A3.86,3.86,0,0,0,34.56,76.42Zm-3-3.91h0a3.06,3.06,0,0,1,3.07-3h.05a3.06,3.06,0,0,1,3,3.07v0a3.07,3.07,0,0,1-3.07,3h0a3.07,3.07,0,0,1-3-3.07Z"/><path class="cls-22" d="M37.41,72.15a2.83,2.83,0,0,0-2.75-2.42h0a2.83,2.83,0,0,0-2.83,2.8h0v0a2.78,2.78,0,0,0,.3,1.25,3,3,0,0,0,5.32-1.66Z"/><path class="cls-23" d="M34.57,75.63h0a3.07,3.07,0,0,0,3.07-3v0a3.06,3.06,0,0,0-3-3.07h-.05a3.06,3.06,0,0,0-3.07,3h0v0A3.07,3.07,0,0,0,34.57,75.63Zm-2.78-3.07v0h0a2.83,2.83,0,0,1,2.83-2.8h0a2.83,2.83,0,0,1,2.75,2.42,3,3,0,0,1-5.32,1.66A2.78,2.78,0,0,1,31.79,72.56Z"/><path class="cls-24" d="M4.21,118.22a.29.29,0,0,0-.3.3v2.57a.29.29,0,0,0,.3.3H65.9a.29.29,0,0,0,.3-.3v-2.57a.29.29,0,0,0-.3-.3H4.21Z"/><path class="cls-25" d="M70.89,16.14V16L66.06,11.2,66,11.13h0l0-.06L65.77,11H56.19V1A.23.23,0,0,0,56,.82a.22.22,0,0,0-.25.13l-.47,1L51,11H21.37l-.16.07,0,.06h0L16.26,16v.11l0,.08,0,.08v.05h0l.18.1H21V16h-4l4.2-4.21v3.55h.48V11.86l1.88,1.88-1.6,1.6h.64l1.28-1.28,1.28,1.28h.64l-1.6-1.6,1.9-1.9v3.5h.46V11.88l1.85,1.86-1.7,1.71h0v1H45.78v-.26A.21.21,0,0,1,46,16h.39l1.92-1.92L50.21,16H56a.21.21,0,0,1,.21.21v.26H70.69l.18-.1h0V16.3l0-.08ZM23.82,13.42l-2-2h3.94Zm11.73-2-2,2-2-2Zm-8.84,0h3.93l-2,2Zm0,4.55,1.93-1.94L30.61,16ZM31,15.69,29,13.74l1.95-2Zm.45-3.81,1.87,1.86L31.4,15.6ZM31.66,16l1.93-1.94L35.52,16Zm4.19-.31-1.94-1.95,1.94-2Zm9.5-4.24-2,2-2-2Zm-4.85,0-2,2-2-2Zm-4,.56,1.73,1.73-1.73,1.74Zm.12,4,1.93-1.94L40.46,16Zm4.15-.36-1.9-1.9,1.9-1.9Zm.46-3.76,1.85,1.86L41.21,15.6ZM41.45,16l1.94-1.94L45.32,16Zm4.21-.31-1.95-1.95,1.95-2Zm.45-.09V11.88L48,13.74Zm.22-4.15h3.94l-2,2Zm4.4,4.4-2.11-2.11,2.11-2.11Zm5,.11H51.19V11.51l4.55,0Zm0-4.87-4.31,0L52.89,8h2.85Zm0-3.56H53.11l1.13-2.35h1.5Zm0-5.4V4.72H54.45L55.7,2.13l0-.09Zm9.5,9.32-2,2-2-2Zm-4.85,0-2,2-2-2Zm-4.17.41,1.88,1.88-1.88,1.88ZM56.49,16l1.93-1.94L60.35,16Zm4.15-.36-1.9-1.9,1.9-1.9Zm.46-3.76L63,13.74,61.1,15.6ZM61.34,16l1.94-1.94L65.21,16Zm4.2-.32L63.6,13.74l1.94-1.94ZM66,16V11.79L70.21,16Z"/><polygon class="cls-26" points="55.73 2.13 55.73 2.04 55.7 2.13 55.73 2.13"/><path class="cls-26" d="M55.29,1.93l.47-1A.22.22,0,0,1,56,.82a.23.23,0,0,1,.18.22V2.13A1.14,1.14,0,0,0,56.55,2a1,1,0,0,0,.32-.33,1.06,1.06,0,0,0,.18-.56,1.09,1.09,0,1,0-2.18,0l0,.09a1.08,1.08,0,0,0,.13.43A1.18,1.18,0,0,0,55.29,1.93Z"/><path class="cls-25" d="M56,26.39h-.86l-1.68,1.69-1.69-1.69h-1V60.8l.07.16.1,0H56l.1,0,.07-.16V45.92h0V31.06h0V26.2A.2.2,0,0,1,56,26.39Zm-.44,4.43h-4.2l2.1-2.1Zm-4,24.68,2-2,1.95,2Zm3.81.46-1.86,1.86L51.58,56Zm-3.72-4.91H55.3l-1.85,1.86Zm0-.45,1.9-1.9,1.9,1.9Zm0-4.43h3.76l-1.88,1.88Zm-.23-.47,2.11-2.12,2.11,2.12Zm.24-4.62h3.73l-1.86,1.86Zm-.08-.46,2-1.95,1.95,1.95Zm.09-4.45H55.3L53.45,38Zm0-.45,1.9-1.9,1.9,1.9Zm0-4.43h3.76l-1.88,1.89Zm-.38-4.82,1.94,1.93-1.94,1.93Zm0,5.09,1.94,1.94-1.94,1.93Zm0,4.86,1.94,1.93-1.94,1.93Zm0,4.91,1.94,1.93L51.19,45.2Zm0,5.11,1.94,1.93-1.94,1.94Zm0,4.86,1.94,1.93-1.94,1.93Zm0,4.91,1.94,1.93-1.94,1.93Zm.14,4.37,2.12-2.12,2.11,2.12Zm4.41-.47-2-2,2-2Zm0-4.91-2-2,2-2Zm0-4.86-2-2,2-2Zm0-5.11-2-2,2-2Zm0-4.91-2-2,2-2Zm0-4.86-2-2,2-2Zm0-5.09-2-2,2-2Z"/><path class="cls-26" d="M56,16H46a.21.21,0,0,0-.21.21v2h6.74v3.4H45.78v4.62a.21.21,0,0,0,.21.21H56a.2.2,0,0,0,.2-.19v-10A.21.21,0,0,0,56,16Z"/><polygon class="cls-27" points="52.52 18.16 45.78 18.16 45.78 18.16 45.78 21.56 45.78 21.56 52.52 21.56 52.52 18.16"/><path class="cls-2" d="M26.65,15.45l-.11-.11H21.1l-.12.12V17l.12.12h2.4V29.31h-.34l0,0V32l0,0h.47v.66a1.11,1.11,0,0,0-.93,1.17,1.14,1.14,0,0,0,1,1,1.13,1.13,0,0,0,1.23-1h-.31a.82.82,0,1,1-1-.9h.48V32h.39l0,0V29.34l0,0h-.33V17.15h2.4l.12-.12V15.46Z"/></svg>