<svg id="Layer_1" data-name="Layer 1" xmlns="http://www.w3.org/2000/svg" viewBox="0 0 251.25 131.5"><defs><style>.cls-1{fill:#d1d2dc;}</style></defs><title>Artboard 5</title><path class="cls-1" d="M250.8,92.68a1.08,1.08,0,0,0-1.12-.07,1.07,1.07,0,0,0-1.13-.6l-1.45.24a1.9,1.9,0,0,0-.76.3A1.39,1.39,0,0,0,246,93a1.32,1.32,0,0,0-.14.6,1.59,1.59,0,0,0,.27.84,3.31,3.31,0,0,0,.7.7,13.9,13.9,0,0,0,1.66,1.07l.84.45,1.12-1.57.64-.89A1.09,1.09,0,0,0,250.8,92.68Z"/><path class="cls-1" d="M220.35,2.08l0-1,0-1-1,0s-.32,0-.74,0a8.87,8.87,0,0,0-1.49.1,2.92,2.92,0,0,0-.82.25,1.34,1.34,0,0,0-.8,1.21,1.36,1.36,0,0,0,.21.71,1.48,1.48,0,0,0,.35.42l1.08,1a1.07,1.07,0,0,0,1.3.1,1.08,1.08,0,0,0,1,.54,1.1,1.1,0,0,0,1-1.12h0Z"/><path class="cls-1" d="M222.81,53.9a40.4,40.4,0,0,0-2.16,4.73s2.92,4.14,5.11,2.23,2.81.72,2.19-1.91S223.58,52.73,222.81,53.9Z"/><path class="cls-1" d="M247.58,25.06a1.08,1.08,0,0,0,.16-1.52l-.82-1a1.08,1.08,0,1,0-1.69,1.36l.83,1A1.09,1.09,0,0,0,247.58,25.06Z"/><path class="cls-1" d="M116.62,2a1.08,1.08,0,0,0-1.69,1.36l.83,1a1.08,1.08,0,1,0,1.68-1.37Z"/><path class="cls-1" d="M1.92,67.09A1.08,1.08,0,1,0,.24,68.45l.83,1a1.08,1.08,0,1,0,1.68-1.36Z"/><path class="cls-1" d="M40.84,100.21a1.1,1.1,0,0,0-1.53-.16,1.09,1.09,0,0,0-.16,1.52l.83,1a1.08,1.08,0,1,0,1.68-1.36Z"/><path class="cls-1" d="M42.36,60.59c-2.73-1-.72-2.82-2.73-1s-3.35,6.83-2,6.94a40.89,40.89,0,0,0,5.18-.38S45.09,61.59,42.36,60.59Z"/><path class="cls-1" d="M115.06,107.77a.63.63,0,0,0-.93.86l.53.57a.64.64,0,0,0,.93-.87Z"/><path class="cls-1" d="M26.42,128.13a1.08,1.08,0,0,0-1.35.71l-.39,1.25a1.09,1.09,0,0,0,.71,1.36,1.07,1.07,0,0,0,1.35-.71l.4-1.26A1.08,1.08,0,0,0,26.42,128.13Z"/><path class="cls-1" d="M81.5,53.15a1.09,1.09,0,0,0-1.09.27,1.06,1.06,0,0,0-1.26-.23l-1.3.66a1.83,1.83,0,0,0-.54.39,1.39,1.39,0,0,0-.35.89,1.22,1.22,0,0,0,.16.61,1.68,1.68,0,0,0,.52.56,3.53,3.53,0,0,0,.85.42,13.64,13.64,0,0,0,1.82.49l.94.18.6-1.84.34-1A1.08,1.08,0,0,0,81.5,53.15Z"/><path class="cls-1" d="M59.68,8.94a1.07,1.07,0,0,0-1.37-.67h0l-1.07.37-1,.33-.94.32.24,1s.17.65.42,1.33a6,6,0,0,0,.47,1,2.47,2.47,0,0,0,.4.51,1.52,1.52,0,0,0,.36.26,1.47,1.47,0,0,0,.6.14,1.37,1.37,0,0,0,.89-.36,1.8,1.8,0,0,0,.4-.57h0l.62-1.33a1.06,1.06,0,0,0-.3-1.27A1,1,0,0,0,59.68,8.94Z"/><path class="cls-1" d="M195.35,52.64a.63.63,0,0,0-.83-.33h0l-.58.25-.53.22L193,53l.09.5s.08.39.2.8a3.56,3.56,0,0,0,.23.62,1.24,1.24,0,0,0,.2.31.74.74,0,0,0,.21.17.77.77,0,0,0,.37.1.76.76,0,0,0,.54-.24,1.06,1.06,0,0,0,.22-.33l.36-.83a.62.62,0,0,0-.19-.74A.6.6,0,0,0,195.35,52.64Z"/><path class="cls-1" d="M85.53,91.44A1,1,0,1,0,84,92.7l.76,1a1,1,0,0,0,1.42.17,1,1,0,0,0,.17-1.43Z"/><path class="cls-1" d="M161.8,87.43a1,1,0,0,0-1.58,1.26l.76,1a1,1,0,0,0,1.59-1.25Z"/><path class="cls-1" d="M179.38,123.76a.59.59,0,0,0-.77-.3h0l-.55.24-.48.21-.43.19.09.46a7.09,7.09,0,0,0,.17.76,4.58,4.58,0,0,0,.22.58.9.9,0,0,0,.19.29l.19.16a.69.69,0,0,0,.35.1.72.72,0,0,0,.51-.23,1,1,0,0,0,.19-.31l.34-.79a1.45,1.45,0,0,1,0-1.36Z"/><path class="cls-1" d="M165.53,16.48a.62.62,0,0,0-.82-.33h0l-.59.25-.52.23-.47.19.1.5a7.78,7.78,0,0,0,.19.81,3.79,3.79,0,0,0,.23.61,1.31,1.31,0,0,0,.21.31.62.62,0,0,0,.21.17.67.67,0,0,0,.37.1.72.72,0,0,0,.54-.24,1,1,0,0,0,.21-.33l.37-.83a.62.62,0,0,0-.19-.73A.62.62,0,0,0,165.53,16.48Z"/><path class="cls-1" d="M131.84,63.21a1.08,1.08,0,0,0-1.69,1.36l.83,1a1.08,1.08,0,1,0,1.68-1.36Z"/></svg>