<svg id="Layer_1" data-name="Layer 1" xmlns="http://www.w3.org/2000/svg" viewBox="0 0 150 150"><defs><style>.cls-1{fill:#dedee5;}.cls-2{fill:#b8b7cd;}.cls-3{fill:#e45150;}.cls-4{fill:#282933;}.cls-5{fill:#d2d2dc;}</style></defs><title>Artboard 1</title><path class="cls-1" d="M79.34,149.87c1-.06,2-.14,3-.23l.46,0c1.11-.12,2.22-.26,3.31-.42l.85-.14q1.36-.21,2.7-.48l.68-.13c1.07-.22,2.13-.47,3.18-.73l.76-.21c.86-.22,1.7-.46,2.55-.72l.78-.24c1-.32,2-.66,3-1l.6-.23c.84-.31,1.67-.64,2.49-1l.82-.34q1.47-.63,2.91-1.32l.34-.17c.86-.42,1.71-.85,2.55-1.3l.8-.44c.85-.47,1.69-.95,2.52-1.45l.28-.16c.9-.55,1.78-1.12,2.66-1.7l.75-.52c.72-.49,1.44-1,2.14-1.52L120,135c.83-.62,1.65-1.27,2.46-1.93l.66-.55c.64-.54,1.28-1.09,1.9-1.65l.59-.53c.77-.7,1.52-1.42,2.26-2.15l.52-.54c.6-.6,1.19-1.22,1.76-1.84l.58-.63c.7-.78,1.39-1.57,2.06-2.38l.34-.42c.57-.7,1.13-1.41,1.67-2.13l.53-.7c.63-.85,1.25-1.72,1.85-2.6a.83.83,0,0,1,.08-.12c.57-.85,1.12-1.72,1.66-2.59l.45-.74c.49-.82,1-1.65,1.43-2.49l.18-.33c.19-.35.36-.7.54-1.05H85.23l-14,40.27c1.25.07,2.52.1,3.79.1s2.3,0,3.44-.09Z"/><path class="cls-2" d="M141.52,109.63c.18-.35.36-.69.53-1,.28-.56.56-1.12.83-1.69s.5-1.09.74-1.63.51-1.15.75-1.74c.08-.21.16-.42.25-.63h-57l17.15-49.26h42.16c0-.16-.08-.32-.13-.48-.17-.55-.35-1.09-.53-1.63s-.4-1.22-.61-1.82-.4-1.06-.6-1.59l-.48-1.22H107.08L118.55,14l-.85-.61-1.37-.93-1.59-1-1.41-.86-.6-.35L100,46.9H83.27l-.12-.3A9.78,9.78,0,0,0,74,40.33h0a9.79,9.79,0,1,0,9,13.59l.13-.28H97.6L90.36,74.43H43.08a2,2,0,0,1-.76-.15h0a1.91,1.91,0,0,1-1-1,1.92,1.92,0,0,1-.19-.81,2,2,0,0,1,.13-.69h0L57.12,30.61h0a2.22,2.22,0,0,1,.28-.5,2,2,0,0,1,.66-.54,1.92,1.92,0,0,1,.83-.2h0L71.32,29h0a8.64,8.64,0,0,0,8-5.92L86.77.93l-.18,0C86.2.83,85.8.79,85.41.74,84.61.62,83.81.52,83,.43L81.58.3c-.55,0-1.1-.09-1.66-.12L73,21h0a2.4,2.4,0,0,1-.27.53,2.17,2.17,0,0,1-.67.57h0a1.87,1.87,0,0,1-.85.21h0l-12.42.33h0a8.62,8.62,0,0,0-4.83,1.58A9,9,0,0,0,52.09,26a8.69,8.69,0,0,0-1.26,2.25h0L42.19,50.68H4.05c-.17.52-.35,1-.52,1.55l-.21.65c-.29.93-.55,1.88-.8,2.82v1.71H39.61L35,69.43h0v0a8.83,8.83,0,0,0-.56,3h0a8.63,8.63,0,0,0,8.67,8.65h4.75l-18.52,53.3.41.33c.44.34.89.66,1.34,1l1.55,1.1c.46.32.92.62,1.39.93l1,.66,10-28.83h33l-13.8,39.6,2,.25c.42.05.83.11,1.25.15,1,.1,2.1.18,3.16.24l.49,0h0l14-40.27ZM48.08,102.9h-.67L55,81.16H88L80.45,102.9Z"/><path class="cls-1" d="M77.29,26.49A8.62,8.62,0,0,1,71.35,29h0l-12.41.33h0a1.92,1.92,0,0,0-.83.2,2,2,0,0,0-.66.54,2.22,2.22,0,0,0-.28.5h0L41.28,71.82h0a2,2,0,0,0-.13.69,1.92,1.92,0,0,0,.19.81,1.91,1.91,0,0,0,1,1h0a2,2,0,0,0,.76.15H90.36L97.6,53.64H83.17l-.13.28a9.78,9.78,0,1,1-9-13.59h0a9.78,9.78,0,0,1,9.12,6.27l.12.3H100l12.78-36.71c-.49-.28-1-.57-1.47-.84s-.81-.44-1.21-.66l-1.86-.95L107,7.14c-.64-.3-1.29-.59-2-.88-.4-.18-.8-.36-1.21-.52-.71-.3-1.44-.58-2.16-.86l-1.06-.4c-1-.36-2-.7-3-1l-.3-.1C96.17,3,95,2.7,93.91,2.41l-1-.24c-.8-.2-1.6-.39-2.41-.56l-1.31-.25c-.8-.16-1.6-.31-2.41-.43L79.38,23.1A8.81,8.81,0,0,1,77.29,26.49Z"/><path class="cls-1" d="M87.58,102.9h57c.21-.53.42-1.05.62-1.57l.51-1.44c.22-.63.44-1.26.65-1.9s.31-1,.46-1.49.37-1.28.54-1.93.27-1,.4-1.52.31-1.31.45-2,.23-1,.33-1.54q.19-1,.36-2c.09-.51.18-1,.25-1.52.11-.72.19-1.44.28-2.16.05-.49.12-1,.17-1.45q.11-1.22.18-2.43c0-.41.07-.82.09-1.23.06-1.23.09-2.47.09-3.71s0-2.3-.09-3.44c0-.29,0-.59,0-.89q-.09-1.53-.24-3.06c0-.12,0-.23,0-.35-.11-1.12-.26-2.23-.42-3.33,0-.28-.09-.55-.13-.83-.15-.94-.32-1.88-.5-2.81,0-.18-.07-.37-.11-.55-.22-1.07-.47-2.14-.73-3.2l-.21-.76c-.19-.72-.39-1.43-.61-2.14H104.73Zm22-8.85L112.21,66a.93.93,0,0,1,1-.85l.31,0a.94.94,0,0,1,.84,1l-.09.95,17.47,1.63a.33.33,0,0,1,.3.36l-1.19,12.79a.33.33,0,0,1-.36.3L113,80.59l-1.26,13.59a6.64,6.64,0,0,0,1.17-.61c3.29-2.16.17,2.91.17,2.91l-5,.06.49-3.45a2.42,2.42,0,0,0,1,1.09A.53.53,0,0,1,109.6,94.05Z"/><path class="cls-1" d="M50.82,28.22h0A8.69,8.69,0,0,1,52.09,26a9,9,0,0,1,1.84-1.75,8.62,8.62,0,0,1,4.83-1.58h0l12.42-.33h0a1.87,1.87,0,0,0,.85-.21h0a2.17,2.17,0,0,0,.67-.57A2.4,2.4,0,0,0,73,21h0L79.92.18l-1-.08C77.61,0,76.31,0,75,0s-2.35,0-3.51.09L70.41.15C69.59.2,68.77.26,68,.34L66.79.46c-.85.09-1.69.2-2.53.32L63.35.9q-1.7.27-3.36.6l-.61.14c-.91.19-1.81.4-2.7.62l-1.07.28c-.76.21-1.52.42-2.28.65l-1,.32c-.87.28-1.74.57-2.59.88l-.59.2C48.06,5,47,5.39,46,5.82l-.78.34c-.77.33-1.53.67-2.28,1l-1,.47c-.71.35-1.41.72-2.11,1.09L39,9.21c-1.93,1.07-3.82,2.21-5.64,3.43l-.8.55c-.66.45-1.3.91-1.94,1.38l-.86.64c-.66.5-1.3,1-1.94,1.53l-.66.53c-.84.7-1.68,1.42-2.49,2.15l-.39.37c-.67.62-1.34,1.25-2,1.9-.25.24-.49.49-.73.74-.55.55-1.08,1.12-1.61,1.69-.24.25-.48.51-.71.77-.6.66-1.19,1.34-1.76,2l-.39.46c-.7.85-1.38,1.71-2,2.59l-.48.66c-.49.67-1,1.35-1.44,2l-.61.9c-.43.66-.86,1.32-1.27,2l-.53.84c-.55.93-1.09,1.86-1.61,2.81l0,.06c-.53,1-1,2-1.51,3-.15.29-.28.6-.42.9-.34.71-.67,1.43-1,2.16-.15.34-.3.68-.44,1q-.47,1.13-.9,2.28c-.11.29-.22.57-.32.86s-.28.83-.43,1.24H42.19Z"/><polygon class="cls-1" points="54.97 81.16 47.41 102.9 48.08 102.9 80.45 102.9 88.02 81.16 54.97 81.16"/><path class="cls-1" d="M45.07,109.63l-10,28.83c.32.2.62.41.94.6.53.33,1.07.63,1.61.94l1.53.88c.55.3,1.12.58,1.68.87s1,.54,1.55.79,1.17.54,1.75.8l1.57.71c.6.25,1.21.48,1.82.72s1,.43,1.59.63,1.24.43,1.87.64,1.07.38,1.61.55,1.27.36,1.9.54,1.11.33,1.67.47,1.27.3,1.91.45,1.14.28,1.72.4,1.27.23,1.9.34,1.26.25,1.89.34h0l.72.09,13.8-39.6Z"/><path class="cls-1" d="M43.09,81.16h0a8.83,8.83,0,0,1-2.64-.4,8.69,8.69,0,0,1-6-8.25h0a8.83,8.83,0,0,1,.56-3v0h0l4.62-12H2.52V55.7L2.43,56l-.21.85c-.22.91-.44,1.82-.63,2.74L1.5,60c-.22,1.07-.41,2.15-.58,3.24l-.09.56C.67,64.92.53,66,.42,67.09l-.06.56C.26,68.76.17,69.88.11,71c0,.13,0,.27,0,.4C0,72.6,0,73.8,0,75s0,2.35.09,3.52c0,.18,0,.36,0,.53.06,1.11.15,2.22.25,3.31,0,.21,0,.42.07.63.12,1.1.25,2.19.41,3.28,0,.15.06.31.08.46.17,1.09.36,2.17.58,3.24a1.29,1.29,0,0,0,0,.19c.22,1.09.47,2.17.74,3.24l.15.57C2.69,95,3,96,3.29,97c.07.2.13.4.19.6.33,1,.67,2,1,3l.15.39C5,102,5.4,103,5.8,104c0,.11.09.22.14.34.41,1,.85,1.94,1.31,2.9l.27.57q.68,1.39,1.41,2.76l.3.54q.77,1.39,1.59,2.76c0,.09.11.18.17.27q.8,1.3,1.65,2.58l.25.38c.59.86,1.19,1.71,1.81,2.55l.38.51c.62.82,1.26,1.63,1.91,2.43.12.14.24.29.37.43q1,1.25,2.1,2.43a1.14,1.14,0,0,0,.11.11c.7.78,1.43,1.54,2.17,2.29l.35.35c.74.73,1.49,1.45,2.26,2.15l.45.41c.78.7,1.56,1.39,2.36,2l.38.31c.58.47,1.18.93,1.78,1.39l18.52-53.3Z"/><path class="cls-1" d="M144.54,46.9c-.14-.34-.27-.69-.41-1,0-.11-.09-.21-.14-.32-.38-.9-.79-1.78-1.2-2.66l-.39-.81c-.42-.85-.85-1.69-1.3-2.52-.06-.13-.13-.26-.2-.39-.51-.94-1-1.86-1.59-2.77l-.45-.73q-.68-1.1-1.38-2.16c-.15-.21-.28-.43-.43-.64q-.88-1.3-1.83-2.58l-.43-.56c-.52-.69-1-1.36-1.6-2l-.56-.69c-.68-.81-1.37-1.61-2.08-2.4l-.2-.21c-.66-.72-1.33-1.43-2-2.12l-.64-.64c-.65-.64-1.3-1.27-2-1.88l-.38-.35c-.78-.71-1.58-1.4-2.4-2.08l-.64-.52c-.67-.54-1.34-1.07-2-1.59l-.61-.46c-.37-.28-.75-.54-1.12-.8L107.08,46.9Z"/><path class="cls-3" d="M130.51,82.21a.33.33,0,0,0,.36-.3l1.19-12.79a.33.33,0,0,0-.3-.36l-17.47-1.63L113,80.59Z"/><path class="cls-4" d="M111.78,94.18,113,80.59l1.25-13.46.09-.95a.94.94,0,0,0-.84-1l-.31,0a.93.93,0,0,0-1,.85L109.6,94.05a.53.53,0,0,0,0,.13A2.59,2.59,0,0,0,111.78,94.18Z"/><path class="cls-5" d="M108.57,93.09l-.49,3.45,5-.06s3.12-5.07-.17-2.91a6.64,6.64,0,0,1-1.17.61,2.59,2.59,0,0,1-2.17,0A2.42,2.42,0,0,1,108.57,93.09Z"/></svg>