<svg id="Layer_1" data-name="Layer 1" xmlns="http://www.w3.org/2000/svg" viewBox="0 0 90 44.23"><defs><style>.cls-1,.cls-10,.cls-12,.cls-3{fill:none;}.cls-2{fill:#c8bebe;}.cls-3{stroke:#6c6882;}.cls-10,.cls-12,.cls-3{stroke-linecap:round;stroke-linejoin:round;stroke-width:0;}.cls-4{fill:#6c6882;}.cls-5{fill:#575672;}.cls-6{fill:#838caa;}.cls-7{fill:#f1f1f8;}.cls-8{fill:#51516f;}.cls-9{fill:#b4b5bf;}.cls-10{stroke:#81819f;}.cls-11{fill:#484862;}.cls-12{stroke:#858290;}.cls-13{fill:#858290;}.cls-14{fill:#a79d9d;}.cls-15{fill:#e6dcd7;}.cls-16{fill:#9f9fbd;}.cls-17{fill:#6276b9;}.cls-18{fill:#c7c7d1;}.cls-19{fill:#e45150;}.cls-20{fill:#6578ba;}.cls-21{fill:#d74442;}.cls-22{fill:#fff;}.cls-23{fill:#7ec243;}.cls-24{fill:#be2929;}.cls-25{fill:#be6f50;}.cls-26{fill:#dc5a3c;}.cls-27{fill:#c94728;}.cls-28{fill:#f09748;}.cls-29{fill:#acaabe;}.cls-30{fill:#787693;}.cls-31{fill:#333246;}.cls-32{fill:#faf0ab;}.cls-33{fill:#f09647;}</style></defs><title>Artboard 2</title><polygon class="cls-1" points="59.54 11.38 59.59 11.44 54.33 6.17 54.33 6.17 59.73 11.57 59.59 11.44 59.54 11.38"/><rect class="cls-2" x="69.13" y="27.16" width="18.78"/><path class="cls-2" d="M69.13,44.19H87.91V29H69.13ZM71.6,31.45h13v7h-13Z"/><line class="cls-3" x1="59.54" y1="11.38" x2="59.6" y2="11.44"/><path class="cls-4" d="M85.79,11.61a.34.34,0,0,0-.34-.23h-6v.29h-.62v-.29H73.94l0,0H68l0,0H61.78l9.47,9.47v.24l-.88.88h-.24l-1-1v6.19H89.64c.23,0,.4-.17.35-.35Z"/><path class="cls-4" d="M13.36,20l.1-.1H14l.1-.1V19l-.1-.1h-.57l-.1-.1v-.92l-.1-.09H11.44l-.1.09v.92l-.1.1h-.57l-.1.1v.87l.1.1h.57l.1.1v3.74c.34,0,.67,0,1,0s.68,0,1,0Zm0,.32h-2V20h2Z"/><rect class="cls-5" x="11.35" y="19.98" width="2.01" height="0.36"/><path class="cls-6" d="M19.4,42.85a1.6,1.6,0,0,1,1.6-1.6h.1a2,2,0,0,1,3.48-.76l.12-.05V35.69h0A12.35,12.35,0,0,0,0,35.69H0v8.48H6.58a7.31,7.31,0,1,1,11.54,0h2A1.6,1.6,0,0,1,19.4,42.85ZM4.16,37.48h-1a.24.24,0,0,1,0,.12.47.47,0,0,1-.93,0,.24.24,0,0,1,0-.12h-1l-.12-.14a1.54,1.54,0,0,1,1.36-1.4v-.82a.18.18,0,0,1,.19-.18.18.18,0,0,1,.18.18v.82a1.55,1.55,0,0,1,1.36,1.4Zm12.55-7.76a1,1,0,0,1-1,1H9a1,1,0,0,1-1-1V28.1a1,1,0,0,1,1-1h6.75a1,1,0,0,1,1,1Z"/><path class="cls-7" d="M12.35,32.38A7.3,7.3,0,0,0,6.58,44.17l0,0H8.7a4.58,4.58,0,0,1-.46-.42,5.82,5.82,0,1,1,8.22,0,4.58,4.58,0,0,1-.46.42h2.09l0,0a7.3,7.3,0,0,0-5.77-11.79Z"/><path class="cls-8" d="M13.25,34.42a3.15,3.15,0,0,1,.42.09A3.15,3.15,0,0,0,13.25,34.42Z"/><path class="cls-8" d="M7.09,38.7a.41.41,0,0,1,0-.11A.41.41,0,0,0,7.09,38.7Z"/><path class="cls-8" d="M7.38,37.67l.12-.25Z"/><path class="cls-8" d="M7.83,36.83c0-.09.12-.18.18-.27Z"/><path class="cls-8" d="M7.51,42l-.13-.26Z"/><path class="cls-8" d="M8,42.82c-.06-.09-.13-.18-.18-.27C7.88,42.64,8,42.73,8,42.82Z"/><path class="cls-8" d="M7.1,40.79s0-.08,0-.12S7.09,40.75,7.1,40.79Z"/><path class="cls-9" d="M16.46,43.8a5.82,5.82,0,1,0-8.22,0,4.58,4.58,0,0,0,.46.42h.77a5,5,0,0,1-.91-.74A4.38,4.38,0,0,1,8.15,43c-.05-.06-.09-.14-.14-.21s-.13-.18-.18-.27A4.83,4.83,0,0,1,7.51,42l-.13-.26a5.64,5.64,0,0,1-.28-.91s0-.08,0-.12A5.51,5.51,0,0,1,7,40H7v0H7v0H7v0H7v-.05H7v0H7a4.42,4.42,0,0,1,.1-.73.41.41,0,0,1,0-.11,5.12,5.12,0,0,1,.28-.92l.12-.25c.1-.2.21-.4.33-.59L8,36.56c.05-.07.09-.15.14-.21a4.38,4.38,0,0,1,.41-.45,5,5,0,0,1,.55-.48c.07-.06.15-.1.22-.15a2.53,2.53,0,0,1,.27-.18L9.84,35a5.69,5.69,0,0,1,.56-.26h0a5.09,5.09,0,0,1,1.1-.29,4.78,4.78,0,0,1,.84-.08h.18l.49,0h0l.22.05a3.15,3.15,0,0,1,.42.09l.3.06h0l.31.13.26.1a5.05,5.05,0,0,1,.79.43h0a5.38,5.38,0,0,1,.78.65h0a4.53,4.53,0,0,1,.54.62h0l.05.09.15.24a5.54,5.54,0,0,1,.32.59c0,.1.09.2.13.31a4.57,4.57,0,0,1,.19.63c0,.1.06.2.08.3a5,5,0,0,1,0,2c0,.1-.05.19-.08.29a4.32,4.32,0,0,1-.19.64c0,.11-.09.21-.13.31a5.54,5.54,0,0,1-.32.59l-.15.24a.56.56,0,0,1-.05.08c-.14.19-.29.37-.44.54h-.12v0h0a5.1,5.1,0,0,1-.73.59l-.13.09H16A4.58,4.58,0,0,0,16.46,43.8ZM6.78,39.22l0-.18v0l0-.19v0c0-.14,0-.28.09-.41h0c0,.13-.06.27-.09.41v0l0,.19v0l0,.18v0Zm0,.37v0Z"/><line class="cls-10" x1="6.76" y1="39.68" x2="6.76" y2="39.59"/><line class="cls-10" x1="6.8" y1="39.04" x2="6.78" y2="39.22"/><line class="cls-10" x1="6.83" y1="38.81" x2="6.8" y2="39"/><path class="cls-10" d="M6.83,38.78c0-.14,0-.28.09-.41"/><path class="cls-9" d="M16.14,35.9a5.38,5.38,0,0,0-.78-.65h0A5.38,5.38,0,0,1,16.14,35.9Z"/><line class="cls-10" x1="6.78" y1="39.25" x2="6.78" y2="39.22"/><line class="cls-10" x1="6.83" y1="38.78" x2="6.83" y2="38.81"/><line class="cls-10" x1="6.92" y1="38.37" x2="6.92" y2="38.37"/><line class="cls-10" x1="6.8" y1="39.04" x2="6.8" y2="39"/><path class="cls-11" d="M11,34.49a4.21,4.21,0,0,0-.63.2h0a5.69,5.69,0,0,0-.56.26l-.24.14v9.13H11Z"/><path class="cls-12" d="M10.4,34.69a5.69,5.69,0,0,0-.56.26"/><path class="cls-8" d="M9.6,43.21V35.09a2.53,2.53,0,0,0-.27.18c-.07,0-.15.09-.22.15a5,5,0,0,0-.55.48,4.38,4.38,0,0,0-.41.45h0V43a4.38,4.38,0,0,0,.41.45,5,5,0,0,0,.91.74H9.6Z"/><path class="cls-11" d="M8.15,40.57V36.35A5.36,5.36,0,0,0,7,39.43H7v0H7v.05H7v0H7v0H7v0H7a5.51,5.51,0,0,0,.09.71s0,.08,0,.12a5.64,5.64,0,0,0,.28.91l.13.26a4.83,4.83,0,0,0,.32.59c0,.09.12.18.18.27s.09.15.14.21Z"/><path class="cls-13" d="M8.15,36.35h0c-.05.06-.09.14-.14.21s-.13.18-.18.27-.23.39-.33.59l-.12.25a5.12,5.12,0,0,0-.28.92.41.41,0,0,0,0,.11,4.42,4.42,0,0,0-.1.73A5.36,5.36,0,0,1,8.15,36.35Z"/><path class="cls-12" d="M7,39.92H7"/><path class="cls-12" d="M7,39.43v0"/><path class="cls-12" d="M7,40H7"/><path class="cls-12" d="M7,39.76H7"/><path class="cls-12" d="M7,39.94H7"/><path class="cls-12" d="M7,39.45H7"/><path class="cls-12" d="M7,39.64H7"/><path class="cls-12" d="M7,39.66H7"/><path class="cls-12" d="M7,39.8H7"/><path class="cls-12" d="M7,39.82H7"/><path class="cls-12" d="M7,39.62H7"/><path class="cls-12" d="M7,39.91H7"/><path class="cls-12" d="M7,39.61H7"/><path class="cls-12" d="M7,39.78H7"/><path class="cls-12" d="M7,39.71H7"/><path class="cls-12" d="M7,39.74H7"/><path class="cls-12" d="M7,39.87H7"/><path class="cls-12" d="M7,39.55H7"/><path class="cls-12" d="M7,39.54H7"/><path class="cls-12" d="M7,39.85H7"/><path class="cls-12" d="M7,39.52H7"/><path class="cls-12" d="M7,39.73H7"/><path class="cls-12" d="M7,39.57v0"/><path class="cls-12" d="M7,39.47v.05"/><path class="cls-12" d="M7,39.59H7"/><path class="cls-12" d="M7,39.83H7"/><path class="cls-8" d="M12.53,40.46a1.16,1.16,0,0,1-.18,0,1,1,0,1,1,0-2.06,1.16,1.16,0,0,1,.18,0V34.33h-.18a4.78,4.78,0,0,0-.84.08,5.09,5.09,0,0,0-1.1.29,4.21,4.21,0,0,1,.63-.2v9.73h1.49Z"/><path class="cls-11" d="M15.36,44.13a5.1,5.1,0,0,0,.73-.59h0v0h.12c.15-.17.3-.35.44-.54V36.54a4.53,4.53,0,0,0-.54-.62h0a5.38,5.38,0,0,0-.78-.65Z"/><path class="cls-12" d="M16.14,35.9a5.38,5.38,0,0,0-.78-.65"/><path class="cls-12" d="M16.21,43.41h0"/><path class="cls-12" d="M16.19,43.43h0"/><path class="cls-12" d="M16.16,43.47h0"/><path class="cls-12" d="M16.24,43.39h0"/><path class="cls-12" d="M16.18,43.45h0"/><path class="cls-12" d="M16.25,43.37h0"/><path class="cls-12" d="M16.09,43.54h0"/><path class="cls-12" d="M16.1,43.53h0"/><path class="cls-12" d="M16.16,35.92h0"/><path class="cls-12" d="M16.13,43.5h0"/><path class="cls-12" d="M16.13,43.5v0"/><path class="cls-12" d="M16.11,43.51h0"/><path class="cls-11" d="M14,44.22V34.57a5.59,5.59,0,0,0-.94-.2h0l-.49,0v4.15a1,1,0,0,1,0,2v3.76Z"/><path class="cls-13" d="M14,34.57h0l-.3-.06a3.15,3.15,0,0,0-.42-.09L13,34.37A5.59,5.59,0,0,1,14,34.57Z"/><path class="cls-12" d="M13,34.37h0"/><path class="cls-8" d="M16.7,42.83a.56.56,0,0,0,.05-.08l.15-.24a5.54,5.54,0,0,0,.32-.59c0-.1.09-.2.13-.31a4.32,4.32,0,0,0,.19-.64c0-.1.06-.19.08-.29a5,5,0,0,0,0-2c0-.1-.05-.2-.08-.3a4.57,4.57,0,0,0-.19-.63c0-.11-.09-.21-.13-.31a5.54,5.54,0,0,0-.32-.59l-.15-.24-.05-.09h0Z"/><path class="cls-8" d="M15.36,44.13V35.25h0a5.05,5.05,0,0,0-.79-.43l-.26-.1L14,34.57h0v9.65h1.26Z"/><rect class="cls-14" x="69.13" y="27.16" width="18.78" height="1.8"/><path class="cls-15" d="M69.13,27.16h0V21l-9.4-9.4-5.4-5.4h-.25L39.28,21V35.61a1,1,0,0,1,.42-.3V35.1h.55v.14h.91a1.08,1.08,0,0,1,.19,0v0h0v-.76h1.1v.76h-.69v.2a1.05,1.05,0,0,1,.44.8h0v2.08h-1v5.87h-.82V38.32H39.28v5.87H69.13v-17ZM49.57,18.34A4.64,4.64,0,1,1,54.13,23,4.64,4.64,0,0,1,49.57,18.34ZM53,27.62V42.29H44.33V27.62Zm2,16.55H42.29V42.31H55Zm11.17-7.75h-.63L65.09,38h-7.2l-.4-1.59h-.63v-1h.39V27.85h8.49v7.54h.38Z"/><rect class="cls-16" x="42.29" y="42.31" width="12.66" height="1.85"/><path class="cls-7" d="M58.19,34.72a.92.92,0,0,1-.4-.64l0,0a2.32,2.32,0,0,1,.37,0V28.8H64.8v5.37a1.41,1.41,0,0,1,.61-.18l0,0c-.12.57-.34.64-.44.71a.37.37,0,0,1-.2.05v.61h.94V27.85H57.25v7.54h.94Z"/><polygon class="cls-8" points="54.08 6.17 54.33 6.17 54.33 6.17 59.59 11.44 59.73 11.57 69.13 20.97 70.13 21.97 70.37 21.97 71.25 21.09 71.25 20.85 54.33 3.93 54.08 3.93 37.16 20.85 37.16 21.09 38.04 21.97 38.28 21.97 39.28 20.97 54.08 6.17"/><path class="cls-7" d="M54.13,23a4.63,4.63,0,1,0-4.56-4.7A4.64,4.64,0,0,0,54.13,23Zm-3.61-4.63v-.06h0a3.69,3.69,0,0,1,3.68-3.63h.06a3.69,3.69,0,0,1,3.63,3.69v.06a3.69,3.69,0,0,1-3.68,3.63h-.06A3.69,3.69,0,0,1,50.52,18.41Z"/><path class="cls-17" d="M50.81,18.36v.05A3.33,3.33,0,0,0,51.21,20a3.67,3.67,0,0,0,6.35-2.06A3.39,3.39,0,0,0,54.26,15H54.2a3.39,3.39,0,0,0-3.39,3.35h0Z"/><path class="cls-18" d="M54.15,22.1h.06a3.69,3.69,0,0,0,3.68-3.63v-.06a3.69,3.69,0,0,0-3.63-3.69H54.2a3.69,3.69,0,0,0-3.68,3.63h0v.06A3.69,3.69,0,0,0,54.15,22.1Zm-3.49-3.75h.15A3.39,3.39,0,0,1,54.2,15h.06a3.39,3.39,0,0,1,3.3,2.91A3.67,3.67,0,0,1,51.21,20a3.33,3.33,0,0,1-.41-1.57v-.05Z"/><path class="cls-19" d="M44.33,42.29H53V27.62H44.33Zm3.58-1.65h-1.8V32.92h1.8Zm3.25,0h-1.8V32.92h1.8Zm1-4.62a.41.41,0,1,1,.4-.41A.4.4,0,0,1,52.16,36Zm-3.49-6.76a2.73,2.73,0,0,1,2.46,2.06H46.21A2.73,2.73,0,0,1,48.67,29.26Z"/><path class="cls-20" d="M46.21,31.32h4.92a2.5,2.5,0,0,0-4.92,0Z"/><rect class="cls-21" x="46.11" y="32.92" width="1.8" height="7.72"/><rect class="cls-21" x="49.36" y="32.92" width="1.8" height="7.72"/><polygon class="cls-22" points="64.81 34.17 64.81 28.8 64.79 28.8 64.79 34.18 64.81 34.17"/><polygon class="cls-22" points="64.79 34.78 64.79 35.39 64.81 35.39 64.81 34.78 64.79 34.78"/><polygon class="cls-17" points="58.2 28.8 58.19 28.8 58.19 34.09 58.2 34.1 58.2 28.8"/><path class="cls-17" d="M58.19,34.72v.67h0v-.67Z"/><path class="cls-20" d="M58.9,35a.66.66,0,0,0-.08-.22.87.87,0,0,0-.21.06.54.54,0,0,1-.34,0l-.07,0v.67h.59a.91.91,0,0,1,.06-.26Z"/><path class="cls-20" d="M64.67,34.78a.78.78,0,0,0-.28,0,.56.56,0,0,0-.07.23l0,.17a1,1,0,0,1,.06.24h.37v-.61Z"/><path class="cls-20" d="M64.08,35s0,0,0,0a.61.61,0,0,1-.26-.08h0a1,1,0,0,1-.48-.64l0,0c.55,0,.66.15.74.22a.39.39,0,0,1,.1.19c0-.06,0-.11.09-.18h0v0l0-.06,0-.21a.35.35,0,0,0-.08-.22h0a.3.3,0,0,1-.21-.07c-.06-.07-.19-.14-.2-.63l0,0a.64.64,0,0,1,.49.34h0a.49.49,0,0,1,.06.17h0a.62.62,0,0,1,.14.62.92.92,0,0,1,.19-.13V28.8H58.2v5.3a1,1,0,0,1,.33.15.65.65,0,0,1,0-.2.54.54,0,0,1,.13-.35h.06a.35.35,0,0,1,.06-.14h0a.7.7,0,0,1,.5-.35l0,0c0,.49-.14.57-.2.63s-.11.07-.22.08h-.06l-.05.14a.53.53,0,0,0,.14.31l0,0h0a1,1,0,0,1,.22.5.51.51,0,0,0,0-.18c.06-.17.07-.24.19-.34s.27-.29,1-.19l0,0a1.3,1.3,0,0,1-.68.75h0c-.16.09-.37.06-.5.12a1,1,0,0,1,0,.1,1,1,0,0,0,0,.17h2.9a.61.61,0,0,1,0-.19v-.05a.23.23,0,0,0-.09,0,.54.54,0,0,1-.33,0c-.11-.06-.33-.08-.56-.67l0,0a1,1,0,0,1,.84.19h0a.66.66,0,0,1,.14.15.34.34,0,0,1,.08-.09h0a.87.87,0,0,1,.61-.26l0,0c-.09.45-.26.5-.33.56a.34.34,0,0,1-.2,0v.07l0,.1h0s0,.05,0,.1h2a.94.94,0,0,0,0-.16A.61.61,0,0,1,64.08,35Z"/><rect class="cls-17" x="72.55" y="32.4" width="5.06" height="5.06"/><path class="cls-7" d="M78.55,38.4h6V31.45h-13v7h7Zm0-6h5.06v5.06H78.57Zm-1,5.06H72.55V32.4h5.06Z"/><rect class="cls-17" x="78.57" y="32.4" width="5.06" height="5.06"/><path class="cls-23" d="M62.18,35.28l0-.1v-.07a.34.34,0,0,0,.2,0c.07-.06.24-.11.33-.56l0,0a.87.87,0,0,0-.61.26h0a.34.34,0,0,0-.08.09.66.66,0,0,0-.14-.15h0A1,1,0,0,0,61,34.5l0,0c.23.59.45.61.56.67a.54.54,0,0,0,.33,0,.23.23,0,0,1,.09,0v.05a.61.61,0,0,0,0,.19h.24s0-.08,0-.1Z"/><path class="cls-23" d="M59.11,35.12c.13-.06.34,0,.5-.12h0a1.3,1.3,0,0,0,.68-.75l0,0c-.69-.1-.84.11-1,.19s-.13.17-.19.34a.51.51,0,0,1,0,.18,1,1,0,0,0-.22-.5h0l0,0a.53.53,0,0,1-.14-.31l.05-.14h.06c.11,0,.15,0,.22-.08s.19-.14.2-.63l0,0a.7.7,0,0,0-.5.35h0a.35.35,0,0,0-.06.14h-.06a.54.54,0,0,0-.13.35.65.65,0,0,0,0,.2,1,1,0,0,0-.33-.15h0a2.32,2.32,0,0,0-.37,0l0,0a.92.92,0,0,0,.4.64h0l.07,0a.54.54,0,0,0,.34,0,.87.87,0,0,1,.21-.06.66.66,0,0,1,.08.22l0,.18a.91.91,0,0,0-.06.26H59a1,1,0,0,1,0-.17A1,1,0,0,0,59.11,35.12Z"/><path class="cls-23" d="M64.32,35a.56.56,0,0,1,.07-.23.78.78,0,0,1,.28,0h.13a.37.37,0,0,0,.2-.05c.1-.07.32-.14.44-.71l0,0a1.41,1.41,0,0,0-.61.18h0a.92.92,0,0,0-.19.13.62.62,0,0,0-.14-.62h0a.49.49,0,0,0-.06-.17h0a.64.64,0,0,0-.49-.34l0,0c0,.49.14.56.2.63a.3.3,0,0,0,.21.07h0a.35.35,0,0,1,.08.22l0,.21,0,.06v0h0c0,.07-.06.12-.09.18a.39.39,0,0,0-.1-.19c-.08-.07-.19-.25-.74-.22l0,0a1,1,0,0,0,.48.64h0a.61.61,0,0,0,.26.08s0,0,0,0a.61.61,0,0,0,.06.25.94.94,0,0,1,0,.16h.24a1,1,0,0,0-.06-.24Z"/><polygon class="cls-16" points="64.81 35.39 64.79 35.39 64.42 35.39 64.18 35.39 62.17 35.39 61.93 35.39 59.03 35.39 58.79 35.39 58.2 35.39 58.19 35.39 57.25 35.39 56.86 35.39 56.86 36.42 57.49 36.42 57.89 38.01 65.09 38.01 65.49 36.42 66.12 36.42 66.12 35.39 65.74 35.39 64.81 35.39"/><path class="cls-24" d="M52.16,35.21a.41.41,0,1,0,.4.4A.4.4,0,0,0,52.16,35.21Z"/><polygon class="cls-8" points="73.91 11.41 73.94 11.38 74.05 11.27 74.05 7.77 73.91 7.63 68.02 7.63 67.88 7.77 67.88 11.27 67.99 11.38 68.02 11.41 73.91 11.41"/><polygon class="cls-25" points="40.41 38.32 40.41 44.19 41.23 44.19 41.23 38.32 41.1 38.32 40.41 38.32"/><path class="cls-26" d="M41.1,36.24h0v2.08h1.1V36.24h0a1.05,1.05,0,0,0-.44-.8v1.81h-.41v-2a1.08,1.08,0,0,0-.19,0h-.91v0A1,1,0,0,1,41.1,36.24Z"/><path class="cls-27" d="M40.41,38.32h.69V36.24h0a1,1,0,0,0-.85-1v.16a.28.28,0,0,1-.28.27.27.27,0,0,1-.27-.27v-.12a1,1,0,0,0-.42.3,1,1,0,0,0-.26.63h0v2.08h1.39Z"/><polygon class="cls-28" points="41.76 37.24 41.76 35.44 41.76 35.24 42.45 35.24 42.45 34.48 41.35 34.48 41.35 35.24 41.35 35.24 41.35 35.27 41.35 37.24 41.76 37.24"/><path class="cls-18" d="M40,35.7a.28.28,0,0,0,.28-.27V35.1H39.7v.33A.27.27,0,0,0,40,35.7Z"/><polygon class="cls-29" points="79.45 7.59 80.09 7.59 80.09 6.97 79.45 6.97 79.45 4.95 80.72 4.95 80.72 4.33 79.45 4.33 79.45 2.32 81.19 2.32 81.19 1.7 79.45 1.7 79.45 0 78.83 0 78.83 1.7 77.08 1.7 77.08 2.32 78.83 2.32 78.83 4.33 77.56 4.33 77.56 4.95 78.83 4.95 78.83 6.97 78.19 6.97 78.19 7.59 78.83 7.59 78.83 11.38 79.45 11.38 79.45 7.59"/><rect class="cls-30" x="78.83" y="11.38" width="0.62" height="0.29"/><path class="cls-31" d="M11.32,39.47a1,1,0,0,0,1,1,1.16,1.16,0,0,0,.18,0,1,1,0,0,0,0-2,1.16,1.16,0,0,0-.18,0A1,1,0,0,0,11.32,39.47Z"/><path class="cls-7" d="M15.73,27.12H9a1,1,0,0,0-1,1v1.62a1,1,0,0,0,1,1h6.75a1,1,0,0,0,1-1V28.1A1,1,0,0,0,15.73,27.12Zm.57,2.41a.8.8,0,0,1-.8.81H9.2a.8.8,0,0,1-.8-.81V28.28a.8.8,0,0,1,.8-.8h6.3a.8.8,0,0,1,.8.8Z"/><rect class="cls-17" x="8.69" y="27.76" width="7.33" height="2.29" rx="0.52" ry="0.52"/><path class="cls-18" d="M15.5,27.48H9.2a.8.8,0,0,0-.8.8v1.25a.8.8,0,0,0,.8.81h6.3a.8.8,0,0,0,.8-.81V28.28A.8.8,0,0,0,15.5,27.48ZM16,29.53a.52.52,0,0,1-.52.52H9.2a.51.51,0,0,1-.51-.52V28.28a.52.52,0,0,1,.51-.52h6.3a.53.53,0,0,1,.52.52Z"/><path class="cls-32" d="M2.27,37.6a.47.47,0,0,0,.93,0,.24.24,0,0,0,0-.12H2.3A.24.24,0,0,0,2.27,37.6Z"/><path class="cls-28" d="M2.92,35.94v1.19l-.37-.05V35.94a1.54,1.54,0,0,0-1.36,1.4l.12.14H4.16l.12-.14A1.55,1.55,0,0,0,2.92,35.94Z"/><path class="cls-33" d="M2.92,37.13v-2a.18.18,0,0,0-.18-.18.18.18,0,0,0-.19.18v2Z"/><path class="cls-23" d="M27,41.94v-.09a1.6,1.6,0,0,0-1.6-1.6,1.5,1.5,0,0,0-.73.19l-.12.05a2,2,0,0,0-3.48.76H21a1.59,1.59,0,0,0-.89,2.92l.07.06h7.47A1.59,1.59,0,0,0,27,41.94Z"/></svg>