<svg id="Layer_1" data-name="Layer 1" xmlns="http://www.w3.org/2000/svg" viewBox="0 0 38 16.9"><defs><style>.cls-1{fill:#fff;}.cls-2{fill:#f0eff8;}.cls-3{fill:#e45150;}.cls-4{fill:#d2d2dc;}.cls-5{fill:#d7d8e2;}.cls-6{fill:#2479bf;}.cls-7{fill:#f0eff7;}</style></defs><title>Artboard 8</title><path class="cls-1" d="M37.39,11.53a1.92,1.92,0,0,0-1-3,2,2,0,0,0-1.67.26,1.44,1.44,0,0,0-.52-.28,1.52,1.52,0,0,0-1.92,1,1.6,1.6,0,0,0-.07.57L25.3,7.89,25,8.76,32.12,11l.05.1-.1.05L25,8.91l-.25.81,8.72,2.75,0,.1-.1,0L24.68,9.87l-.26.82,7.09,2.23.06.1-.1.05-7.09-2.24-.28.87,6.72,2.11h0a1.51,1.51,0,0,0-.38.62A1.55,1.55,0,0,0,33,16.06a1,1,0,0,0,2,.12,1,1,0,0,0,0-.69l.08,0a2.41,2.41,0,0,0,2.41-3.93Z"/><polygon class="cls-2" points="32.07 11.14 32.17 11.09 32.12 10.99 25.03 8.76 24.98 8.91 32.07 11.14"/><polygon class="cls-2" points="31.47 13.07 31.57 13.02 31.52 12.92 24.42 10.69 24.38 10.83 31.47 13.07"/><polygon class="cls-2" points="33.4 12.62 33.5 12.56 33.45 12.47 24.73 9.72 24.68 9.87 33.4 12.62"/><polygon class="cls-3" points="24.42 10.69 24.68 9.87 24.73 9.72 24.98 8.91 25.03 8.76 25.3 7.89 25.51 7.24 24.5 6.92 23.89 8.85 23.52 10.04 22.89 12.04 23.9 12.36 24.1 11.7 24.38 10.83 24.42 10.69"/><path class="cls-3" d="M22.66,12.5H21.47l-.46,0h-.14l-.7,0h0a45.49,45.49,0,0,1-5-.63l.07.13c3.56,6.09,13.24,4.16,12.31,4a11.79,11.79,0,0,1-4.73-3.42l0,0h-.08Z"/><path class="cls-3" d="M22.5,5h0l.22.13.29.18.22.14.23.15.19.12.2.13.15.1.16.11.12.08.13.09.07,0,.12.09.05,0h0a11.76,11.76,0,0,1,5.85-.1c.36.18-.68-1-2.49-2.23C25.62,2.45,21.81.84,18.14,2.53L18,2.6A44.14,44.14,0,0,1,22.5,5Z"/><path class="cls-4" d="M1.16,4.18,1.05,4Z"/><path class="cls-4" d="M5,.17C5.33.12,5.72.07,6.12,0,5.72.07,5.33.12,5,.17Z"/><path class="cls-4" d="M.75,3.55.66,3.39Z"/><path class="cls-4" d="M.47,3.06A1.17,1.17,0,0,1,.42,3,1.17,1.17,0,0,0,.47,3.06Z"/><path class="cls-4" d="M.43,1.69l.41-.23Z"/><path class="cls-4" d="M0,2.07,0,2Z"/><path class="cls-4" d="M.13,1.89l.2-.14Z"/><path class="cls-4" d="M1.68,1.06,2.33.81Z"/><path class="cls-4" d="M.11,2.29l0,0Z"/><path class="cls-4" d="M.25,2.61l0-.1Z"/><path class="cls-4" d="M1.61,4.78l-.14-.19Z"/><path class="cls-4" d="M.89,1.43l.64-.31Z"/><path class="cls-4" d="M2.58.72c.25-.08.52-.16.81-.23C3.1.56,2.83.64,2.58.72Z"/><path class="cls-4" d="M.08,1.92,0,2H0A.35.35,0,0,0,.08,1.92Z"/><path class="cls-4" d="M3.6.43C4,.34,4.36.26,4.78.19,4.36.26,4,.34,3.6.43Z"/><path class="cls-4" d="M3.8,7,3.56,6.8Z"/><path class="cls-4" d="M2.25,5.53l-.18-.19Z"/><path class="cls-4" d="M2.89,6.18c-.07-.06-.12-.12-.18-.18S2.82,6.12,2.89,6.18Z"/><path class="cls-4" d="M22.5,5A44.14,44.14,0,0,0,18,2.6c-1-.44-2-.87-3.15-1.27A22.28,22.28,0,0,0,6.3,0L4.05,7.19A22.2,22.2,0,0,0,11.8,11c1.15.31,2.26.56,3.32.76a45.49,45.49,0,0,0,5,.63ZM10.75,8.67a3.16,3.16,0,1,1,4-2.06A3.16,3.16,0,0,1,10.75,8.67Z"/><path class="cls-4" d="M22.66,12.5h0Z"/><path class="cls-4" d="M22.11,12.5h0Z"/><path class="cls-4" d="M22.63,12.5h0Z"/><path class="cls-4" d="M20.17,12.42l.7,0Z"/><path class="cls-4" d="M21,12.47l.46,0Z"/><path class="cls-4" d="M21.64,12.49h0Z"/><path class="cls-4" d="M24.66,6.39h0l-.05,0Z"/><path class="cls-4" d="M24.49,6.26l-.07,0Z"/><path class="cls-4" d="M23.66,5.7l-.19-.12Z"/><path class="cls-4" d="M24.29,6.12,24.17,6Z"/><path class="cls-4" d="M23.24,5.43,23,5.29Z"/><path class="cls-4" d="M24,5.93l-.15-.1Z"/><path class="cls-4" d="M22.73,5.11,22.51,5Z"/><path class="cls-5" d="M23.89,8.85l.6-1.93.17-.53h0l-.05,0-.12-.09-.07,0-.13-.09L24.17,6,24,5.93l-.15-.1-.2-.13-.19-.12-.23-.15L23,5.29l-.29-.18L22.51,5h0l-2.34,7.45h0l.7,0H21l.46,0h1.27l.14-.45.63-2Z"/><path class="cls-3" d="M6.3,0H6.12c-.4,0-.79.08-1.15.13l-.19,0C4.36.26,4,.34,3.6.43L3.39.49c-.29.07-.56.15-.81.23L2.33.81l-.65.25-.15.06-.64.31-.05,0-.41.23-.1.06-.2.14,0,0A.35.35,0,0,1,0,2H0V2l0,0a1.2,1.2,0,0,0,.06.17l0,0a1.65,1.65,0,0,1,.09.22l0,.1c0,.1.1.22.17.34a1.17,1.17,0,0,0,0,.11c.06.11.12.22.19.33l.09.16c.09.15.19.31.3.47l.11.16.31.41.14.19.46.56.18.19c.14.15.29.31.46.47s.11.12.18.18c.21.21.43.41.67.62L3.8,7,4,7.2h0L6.3,0Z"/><path class="cls-3" d="M12.64,2.64a3.16,3.16,0,1,0,2.07,4A3.16,3.16,0,0,0,12.64,2.64ZM14.1,6.42a2.52,2.52,0,0,1-2.4,1.76,2.85,2.85,0,0,1-.76-.11,2.53,2.53,0,0,1,.76-4.94,2.45,2.45,0,0,1,.75.12,2.53,2.53,0,0,1,1.77,2.41A2.56,2.56,0,0,1,14.1,6.42Z"/><path class="cls-6" d="M13.9,6.35A2.37,2.37,0,0,0,14,5.66a2.32,2.32,0,0,0-1.62-2.21,2.35,2.35,0,0,0-.69-.1,2.38,2.38,0,0,0-.39,0,2.49,2.49,0,0,0,0,4.57l.34,0A2.31,2.31,0,0,0,13.9,6.35Z"/><path class="cls-7" d="M12.45,3.25a2.45,2.45,0,0,0-.75-.12,2.53,2.53,0,0,0-.76,4.94,2.85,2.85,0,0,0,.76.11,2.52,2.52,0,0,0,2.4-1.76,2.56,2.56,0,0,0,.12-.76A2.53,2.53,0,0,0,12.45,3.25ZM11.36,8a2.49,2.49,0,0,1,0-4.57,2.38,2.38,0,0,1,.39,0,2.35,2.35,0,0,1,.69.1A2.32,2.32,0,0,1,14,5.66a2.37,2.37,0,0,1-.11.69A2.31,2.31,0,0,1,11.7,8Z"/></svg>