<svg id="Layer_1" data-name="Layer 1" xmlns="http://www.w3.org/2000/svg" viewBox="0 0 53.2 70"><defs><style>.cls-1{fill:#6c6882;}.cls-2{fill:#d7d7eb;}.cls-3{fill:#acaabe;}.cls-4{fill:#9f9fbd;}.cls-5{fill:#ee7950;}.cls-6{fill:#de603f;}.cls-7{fill:#dc5a3c;}.cls-8{fill:#7c84b4;}.cls-9{fill:#81819f;}.cls-10{fill:#9793a6;}.cls-11{fill:#8a869f;}.cls-12{fill:#edecf6;}.cls-13{fill:#e2e2f0;}.cls-14{fill:#e5e5f1;}.cls-15{fill:#797896;}.cls-16{fill:#575672;}</style></defs><title>Artboard 3</title><polygon class="cls-1" points="42.78 12.01 42.78 8.46 42.67 8.34 41.38 8.34 41.27 8.46 41.27 12.01 41.28 12.03 42.77 12.03 42.78 12.01"/><path class="cls-1" d="M47.44,12V6.43l.12-.12h.7l.12-.12V5.13L48.26,5h-.7l-.12-.12V3.79l-.12-.12h-2.2L45,3.79v1.1L44.88,5h-.7l-.12.12V6.19l.12.12h.7l.12.12V12l0,0h2.39ZM45,6.82V6.38h2.43v.44Z"/><path class="cls-2" d="M39.53,28.13l-.19,0a4.17,4.17,0,0,1-1.23-.21v2h1.42Z"/><path class="cls-2" d="M35.86,26.3a4.12,4.12,0,0,1-.66-1.82h-.72V31.4h1.38Z"/><path class="cls-2" d="M36.29,49.38h1.39V45.63a4.28,4.28,0,0,1-1.39-1Z"/><path class="cls-2" d="M26.78,28a4.63,4.63,0,0,1-1,.13c-.13,0-.26,0-.39,0V31.4h1.38Z"/><path class="cls-2" d="M37.42,30l.13-.14h.13V27.8a4.28,4.28,0,0,1-1.39-1V31.4h1.13Z"/><rect class="cls-2" x="19.96" y="24.48" width="1.38" height="6.92"/><rect class="cls-2" x="18.14" y="24.48" width="1.38" height="6.92"/><path class="cls-2" d="M30.42,24.48h-.49a4.14,4.14,0,0,1-.9,2.1V31.4h1.39Z"/><path class="cls-2" d="M15.89,26.32a4.17,4.17,0,0,1-1.38,1.26V31.4h1.38Z"/><path class="cls-2" d="M25.4,45.94v3.44h1.38V45.84a4.07,4.07,0,0,1-1,.13Z"/><path class="cls-2" d="M23.59,49.38H25V45.89a4.16,4.16,0,0,1-1.38-.55Z"/><path class="cls-2" d="M34.48,42.46v6.92h1.38V44.13a4.26,4.26,0,0,1-.65-1.67Z"/><path class="cls-2" d="M12.68,31.4h1.4V27.81a4.08,4.08,0,0,1-1.4.31Z"/><polygon class="cls-2" points="21.34 45.16 21.34 42.46 19.98 42.46 21.34 45.16"/><path class="cls-2" d="M38.11,45.77v3.61h1.42V46h-.19A4.17,4.17,0,0,1,38.11,45.77Z"/><rect class="cls-2" x="30.85" y="42.46" width="1.38" height="6.92"/><rect class="cls-2" x="32.66" y="42.46" width="1.38" height="6.92"/><path class="cls-2" d="M23.15,27.19a4.24,4.24,0,0,1-1.38-2.1V31.4h1.38Z"/><path class="cls-2" d="M17.71,24.48H16.58a4.91,4.91,0,0,1-.25,1v5.9h1.38Z"/><path class="cls-2" d="M25,28.06a4,4,0,0,1-1.38-.55V31.4H25Z"/><path class="cls-2" d="M14.51,45.4v4h1.38V44.15A4,4,0,0,1,14.51,45.4Z"/><path class="cls-2" d="M21.77,42.92V46l1.38,2.74V45A4.24,4.24,0,0,1,21.77,42.92Z"/><polygon class="cls-2" points="18.14 42.46 18.14 49.38 19.52 49.38 19.52 44.44 18.52 42.46 18.14 42.46"/><path class="cls-2" d="M16.33,43.33v6.05h1.38V42.46H16.56A4.29,4.29,0,0,1,16.33,43.33Z"/><path class="cls-2" d="M29,44.41v5h1.39V42.46h-.51A4.14,4.14,0,0,1,29,44.41Z"/><path class="cls-2" d="M48.82,24.46V23l.13-.14H51v-6H2.18v7.41H4.63l.13.14v1.46L4.63,26H2.18V64.66H4.13l.14.13v1.46l-.14.13H2.18v.77l.06-.06H6.29l.14.13v1.46l-.14.14h-4l-.06-.07V70H33.56V60.15c0-3.5,2.55-6.34,5.7-6.34S45,56.65,45,60.15V70H51V68.82H47.29l-.13-.14V67.22l.13-.13H51V24.59H49ZM46.58,30V31.5l-.13.13H42.4l-.14-.13V30l.14-.14h4.05ZM5.17,31.91l.14-.13H9.36l.13.13v1.46l-.13.14h-4l-.14-.14Zm5.68,18.83-.14.13H6.66l-.13-.13V49.28l.13-.14h4.05l.14.14Zm3.17.67.14.13V53l-.14.14H10L9.83,53V51.54l.14-.13ZM7.9,35.71V34.25L8,34.11h4.05l.14.14v1.46l-.14.13H8ZM5.06,53.14,4.93,53V51.54l.13-.13H9.12l.13.13V53l-.13.14Zm7.37,11.25a4.2,4.2,0,1,1,4.2-4.2A4.2,4.2,0,0,1,12.43,64.39Zm11,4.29-.14.14H19.23l-.14-.14V67.22l.14-.13h4.05l.14.13Zm2.37-4.29A4.2,4.2,0,1,1,30,60.19,4.19,4.19,0,0,1,25.79,64.39ZM40.63,50.54l-.13.13H11.72l-.14-.13v-1l.14-.13h.53V46a4.19,4.19,0,1,1,4.38-4.18,2.13,2.13,0,0,1,0,.25h1.71l-4.72-9.34H11.72l-.14-.13v-1l.14-.13h.53V28.13A4.19,4.19,0,1,1,16.63,24s0,.06,0,.1h5s0-.06,0-.1A4.19,4.19,0,0,1,30,24s0,.06,0,.1h5.18V24A4.19,4.19,0,1,1,40,28.08V29.9h1.65l.13.14V31.5l-.13.13h-1v.56h3l.14.14v1.46l-.14.13H39.55l-.13-.13v-1.1H15.05L19.76,42h1.86c0-.09,0-.16,0-.25a4.19,4.19,0,0,1,8.38,0c0,.09,0,.16,0,.25h5.21c0-.09,0-.16,0-.25A4.19,4.19,0,1,1,40,45.91v3.47h.54l.13.13Zm5.56,2.39-.13.14H42l-.14-.14V51.47l.14-.13h4.05l.13.13Zm3.11-3.66v1.46l-.13.13H45.12L45,50.73V49.27l.14-.14h4.05Z"/><path class="cls-2" d="M12.68,49.38h1.4V45.64a4.33,4.33,0,0,1-1.4.31Z"/><rect class="cls-2" x="30.85" y="24.48" width="1.38" height="6.92"/><path class="cls-2" d="M27.22,49.38H28.6V44.87a4.16,4.16,0,0,1-1.38.84Z"/><polygon class="cls-2" points="21.77 49.38 22.02 49.38 21.77 48.89 21.77 49.38"/><path class="cls-2" d="M28.6,27.05a4.31,4.31,0,0,1-1.38.83V31.4H28.6Z"/><polygon class="cls-2" points="19.96 49.38 21.34 49.38 21.34 48.03 19.96 45.29 19.96 49.38"/><rect class="cls-2" x="32.66" y="24.48" width="1.38" height="6.92"/><polygon class="cls-3" points="13.87 9.23 15.32 9.23 15.32 8.49 13.87 8.49 13.87 3.45 15.45 3.45 15.45 2.72 13.87 2.72 13.87 0 13.13 0 13.13 2.72 11.59 2.72 11.59 2.17 10.86 2.17 10.86 2.72 9.06 2.72 9.06 1.57 8.33 1.57 8.33 2.72 6.53 2.72 6.53 1.11 5.8 1.11 5.8 2.72 4.24 2.72 4.24 3.45 5.8 3.45 5.8 5.06 6.53 5.06 6.53 3.45 8.33 3.45 8.33 4.61 9.06 4.61 9.06 3.45 10.86 3.45 10.86 4 11.59 4 11.59 3.45 13.13 3.45 13.13 8.49 11.68 8.49 11.68 9.23 13.13 9.23 13.13 12.03 13.87 12.03 13.87 9.23"/><path class="cls-4" d="M39.26,53.81c-3.15,0-5.7,2.84-5.7,6.34V70H45V60.15C45,56.65,42.4,53.81,39.26,53.81ZM43.74,69h-9V60.27c0-2.84,2-5.14,4.49-5.14s4.48,2.3,4.48,5.14Z"/><path class="cls-5" d="M39.26,55.13c-2.48,0-4.49,2.3-4.49,5.14V69h9V60.27C43.74,57.43,41.74,55.13,39.26,55.13Zm0,1.44a3.14,3.14,0,0,1,2.87,2.17H36.39A3.13,3.13,0,0,1,39.26,56.57Zm3.11,11.05H36.15v-4.3h6.22Zm0-5.64H36.15V60.42h6.22Zm.45,1.38h.44v2.1h-.44Z"/><path class="cls-6" d="M39.26,56.57a3.13,3.13,0,0,0-2.87,2.17h5.74A3.14,3.14,0,0,0,39.26,56.57Z"/><rect class="cls-6" x="36.15" y="60.42" width="6.22" height="1.56"/><rect class="cls-6" x="36.15" y="63.32" width="6.22" height="4.31"/><rect class="cls-7" x="42.82" y="63.36" width="0.45" height="2.1"/><path class="cls-4" d="M39.53,28.13v-.86l-.19,0a3.33,3.33,0,0,1-1.23-.24v.89a4.17,4.17,0,0,0,1.23.21Z"/><path class="cls-4" d="M37.68,26.83a3.36,3.36,0,0,1-1.39-1.52v1.51a4.28,4.28,0,0,0,1.39,1Z"/><path class="cls-4" d="M36,24a3.34,3.34,0,1,1,4,3.28v.85A4.18,4.18,0,1,0,35.15,24v.1H36S36,24,36,24Z"/><path class="cls-4" d="M35.86,24.48H35.2a4.12,4.12,0,0,0,.66,1.82Z"/><path class="cls-8" d="M39.53,26.41V24.49H38.11V26.3a3.31,3.31,0,0,0,1,.15A3.57,3.57,0,0,0,39.53,26.41Z"/><path class="cls-8" d="M42.37,23.46a3.08,3.08,0,0,0-6.11.49s0,.06,0,.1H39.7l.07.06.19.2v2A3.32,3.32,0,0,0,42.37,23.46Z"/><path class="cls-8" d="M37.68,26.14V24.48H36.31a3,3,0,0,0,.31.88A3.28,3.28,0,0,0,37.68,26.14Z"/><path class="cls-9" d="M39.53,27.27v-.86a3.57,3.57,0,0,1-.47,0,3.31,3.31,0,0,1-1-.15v.75a3.33,3.33,0,0,0,1.23.24Z"/><path class="cls-9" d="M42.68,24A3.34,3.34,0,0,0,36,24s0,.06,0,.1h.26s0-.06,0-.1a3.08,3.08,0,0,1,6.11-.49A3.32,3.32,0,0,1,40,26.31v.92A3.34,3.34,0,0,0,42.68,24Z"/><path class="cls-9" d="M37.68,26.83v-.69a3.28,3.28,0,0,1-1.06-.78,3,3,0,0,1-.31-.88h0v.83A3.36,3.36,0,0,0,37.68,26.83Z"/><path class="cls-4" d="M22.45,24a3.34,3.34,0,0,1,6.68,0s0,.06,0,.1H30s0-.06,0-.1a4.19,4.19,0,0,0-8.38,0s0,.06,0,.1h.85S22.45,24,22.45,24Z"/><path class="cls-4" d="M26.78,28v-.9a3.21,3.21,0,0,1-1,.17,2.58,2.58,0,0,1-.39,0v.86c.13,0,.26,0,.39,0A4.63,4.63,0,0,0,26.78,28Z"/><path class="cls-4" d="M29.07,24.48a1.85,1.85,0,0,1,0,.23v1.87a4.14,4.14,0,0,0,.9-2.1Z"/><path class="cls-4" d="M23.15,27.19V26a3.33,3.33,0,0,1-.65-1.5h-.73v.61A4.24,4.24,0,0,0,23.15,27.19Z"/><path class="cls-4" d="M25,27.18a3.25,3.25,0,0,1-1.38-.74v1.07a4,4,0,0,0,1.38.55Z"/><path class="cls-4" d="M28.6,25.74A3.32,3.32,0,0,1,27.22,27v.92a4.31,4.31,0,0,0,1.38-.83Z"/><path class="cls-8" d="M25,24.48H23.59v1.34a3.32,3.32,0,0,0,1.38.57Z"/><path class="cls-8" d="M26.78,26.2V24.48H25.4v2h.11A3.34,3.34,0,0,0,26.78,26.2Z"/><path class="cls-8" d="M23.15,25.46v-1h-.38a3,3,0,0,0,.3.88Z"/><path class="cls-8" d="M28.55,24.48H27.22V26A3.37,3.37,0,0,0,28.55,24.48Z"/><path class="cls-8" d="M25.79,20.88A3.07,3.07,0,0,0,22.71,24s0,.06,0,.1h6a2.94,2.94,0,0,0,.12-.59A3.08,3.08,0,0,0,25.79,20.88Z"/><path class="cls-9" d="M28.6,25.74V24.48h-.05A3.37,3.37,0,0,1,27.22,26v1A3.32,3.32,0,0,0,28.6,25.74Z"/><path class="cls-9" d="M26.78,27.12V26.2a3.34,3.34,0,0,1-1.27.25H25.4v.81a2.58,2.58,0,0,0,.39,0A3.21,3.21,0,0,0,26.78,27.12Z"/><path class="cls-9" d="M23.15,25.46l-.08-.1a3,3,0,0,1-.3-.88H22.5a3.33,3.33,0,0,0,.65,1.5Z"/><path class="cls-9" d="M29,24.48v.23a1.85,1.85,0,0,0,0-.23Z"/><path class="cls-9" d="M25.79,20.62A3.34,3.34,0,0,0,22.45,24s0,.06,0,.1h.26s0-.06,0-.1a3.08,3.08,0,0,1,6.11-.49,2.94,2.94,0,0,1-.12.59h.42s0-.06,0-.1A3.34,3.34,0,0,0,25.79,20.62Z"/><path class="cls-9" d="M25,26.39a3.32,3.32,0,0,1-1.38-.57v.62a3.25,3.25,0,0,0,1.38.74Z"/><path class="cls-4" d="M16.33,24.48v1a4.91,4.91,0,0,0,.25-1Z"/><path class="cls-4" d="M15.89,26.32V24.48h-.17a3.32,3.32,0,0,1-1.21,2.07v1A4.17,4.17,0,0,0,15.89,26.32Z"/><path class="cls-4" d="M12.68,28.12a4.08,4.08,0,0,0,1.4-.31v-1a3.33,3.33,0,0,1-1.4.43Z"/><path class="cls-4" d="M9.1,24a3.34,3.34,0,0,1,6.67,0s0,.06,0,.1h.86s0-.06,0-.1a4.2,4.2,0,1,0-4.38,4.18v-.86A3.32,3.32,0,0,1,9.1,24Z"/><path class="cls-8" d="M14.51,24.48v1a3.31,3.31,0,0,0,.69-1Z"/><path class="cls-8" d="M12.43,20.88a3.06,3.06,0,0,0-2.72,4.48,3.32,3.32,0,0,0,2.44,1.09h.1V24.31l.06-.07.2-.19h2.84a3.84,3.84,0,0,0,.11-.59A3.07,3.07,0,0,0,12.43,20.88Z"/><path class="cls-8" d="M12.68,24.49V26.4a3.26,3.26,0,0,0,1.4-.56V24.48h-1.4Z"/><path class="cls-9" d="M15.72,24.48H15.2a3.31,3.31,0,0,1-.69,1v1.07A3.32,3.32,0,0,0,15.72,24.48Z"/><path class="cls-9" d="M12.43,20.62a3.33,3.33,0,0,0-.18,6.65v-.82h-.1a3.32,3.32,0,0,1-2.44-1.09,3.06,3.06,0,0,1,2.72-4.48,3.07,3.07,0,0,1,3,2.58,3.84,3.84,0,0,1-.11.59h.41s0-.06,0-.1A3.33,3.33,0,0,0,12.43,20.62Z"/><path class="cls-9" d="M12.68,27.27a3.33,3.33,0,0,0,1.4-.43v-1a3.26,3.26,0,0,1-1.4.56Z"/><path class="cls-4" d="M36,41.78a3.34,3.34,0,1,1,4,3.28v.85a4.18,4.18,0,1,0-4.81-4.13c0,.09,0,.16,0,.25H36A2.42,2.42,0,0,1,36,41.78Z"/><path class="cls-4" d="M35.86,44.13V42.46h-.65A4.26,4.26,0,0,0,35.86,44.13Z"/><path class="cls-4" d="M36.29,43.14v1.51a4.28,4.28,0,0,0,1.39,1v-1A3.36,3.36,0,0,1,36.29,43.14Z"/><path class="cls-4" d="M38.11,44.88v.89a4.17,4.17,0,0,0,1.23.2h.19V45.1l-.19,0A3.33,3.33,0,0,1,38.11,44.88Z"/><path class="cls-8" d="M36.62,43.19a3.25,3.25,0,0,0,1.06.77v-1.5H36.34A3.06,3.06,0,0,0,36.62,43.19Z"/><path class="cls-8" d="M38.11,42.46v1.67a3.31,3.31,0,0,0,1,.15,2.42,2.42,0,0,0,.47-.05V42.47H38.11Z"/><path class="cls-8" d="M42.37,41.29a3.07,3.07,0,0,0-6.11.49,2.13,2.13,0,0,0,0,.25H39.7l.07.06.19.2v1.85A3.32,3.32,0,0,0,42.37,41.29Z"/><path class="cls-9" d="M38.11,44.13v.75a3.33,3.33,0,0,0,1.23.24l.19,0v-.87a2.42,2.42,0,0,1-.47.05A3.31,3.31,0,0,1,38.11,44.13Z"/><path class="cls-9" d="M42.68,41.78a3.34,3.34,0,1,0-6.68,0A2.42,2.42,0,0,0,36,42h.26a2.13,2.13,0,0,1,0-.25,3.07,3.07,0,0,1,6.11-.49A3.32,3.32,0,0,1,40,44.14v.92A3.35,3.35,0,0,0,42.68,41.78Z"/><path class="cls-9" d="M36.34,42.46h-.05v.68a3.36,3.36,0,0,0,1.39,1.52V44a3.25,3.25,0,0,1-1.06-.77A3.06,3.06,0,0,1,36.34,42.46Z"/><path class="cls-4" d="M22.45,41.78a3.34,3.34,0,0,1,6.68,0,2.42,2.42,0,0,1,0,.25H30c0-.09,0-.16,0-.25a4.19,4.19,0,0,0-8.38,0c0,.09,0,.16,0,.25h.86A2.13,2.13,0,0,1,22.45,41.78Z"/><path class="cls-4" d="M27.22,44.79v.92a4.16,4.16,0,0,0,1.38-.84v-1.3A3.39,3.39,0,0,1,27.22,44.79Z"/><path class="cls-4" d="M25.4,45.08v.86l.39,0a4.07,4.07,0,0,0,1-.13V45a3.21,3.21,0,0,1-1,.17A2.58,2.58,0,0,1,25.4,45.08Z"/><path class="cls-4" d="M29.06,42.46l0,.08v1.87a4.14,4.14,0,0,0,.88-1.95Z"/><path class="cls-4" d="M21.77,42.46v.46A4.24,4.24,0,0,0,23.15,45V43.81a3.35,3.35,0,0,1-.63-1.35Z"/><path class="cls-4" d="M23.59,45.34a4.16,4.16,0,0,0,1.38.55V45a3.36,3.36,0,0,1-1.38-.74Z"/><path class="cls-8" d="M28.47,42.46H27.22V43.8A3.36,3.36,0,0,0,28.47,42.46Z"/><path class="cls-8" d="M23.59,43.64a3.33,3.33,0,0,0,1.38.58V42.46H23.59Z"/><path class="cls-8" d="M25.4,44.27h.11A3.34,3.34,0,0,0,26.78,44V42.46H25.4Z"/><path class="cls-8" d="M25.79,38.7a3.09,3.09,0,0,0-3.08,3.08,2.13,2.13,0,0,0,0,.25h5.92a3.61,3.61,0,0,0,.16-.74A3.09,3.09,0,0,0,25.79,38.7Z"/><path class="cls-8" d="M23.07,43.19l.08.09v-.82h-.36A3.06,3.06,0,0,0,23.07,43.19Z"/><path class="cls-9" d="M27.22,43.8v1a3.39,3.39,0,0,0,1.38-1.22V42.46h-.13A3.36,3.36,0,0,1,27.22,43.8Z"/><path class="cls-9" d="M25.4,44.27v.81a2.58,2.58,0,0,0,.39,0,3.21,3.21,0,0,0,1-.17V44a3.34,3.34,0,0,1-1.27.25Z"/><path class="cls-9" d="M22.79,42.46h-.27a3.35,3.35,0,0,0,.63,1.35v-.53l-.08-.09A3.06,3.06,0,0,1,22.79,42.46Z"/><path class="cls-9" d="M29,42.46v.08l0-.08Z"/><path class="cls-9" d="M25.79,38.44a3.35,3.35,0,0,0-3.34,3.34,2.13,2.13,0,0,0,0,.25h.26a2.13,2.13,0,0,1,0-.25,3.07,3.07,0,0,1,6.11-.49,3.61,3.61,0,0,1-.16.74h.44a2.42,2.42,0,0,0,0-.25A3.35,3.35,0,0,0,25.79,38.44Z"/><path class="cls-9" d="M23.59,44.27A3.36,3.36,0,0,0,25,45v-.79a3.33,3.33,0,0,1-1.38-.58Z"/><path class="cls-4" d="M14.51,44.38v1a4,4,0,0,0,1.38-1.25V42.46H15.7A3.33,3.33,0,0,1,14.51,44.38Z"/><path class="cls-4" d="M16.33,42.46v.87a4.29,4.29,0,0,0,.23-.87Z"/><path class="cls-4" d="M9.1,41.78a3.34,3.34,0,1,1,6.67,0c0,.08,0,.16,0,.25h.85a2.13,2.13,0,0,0,0-.25A4.2,4.2,0,1,0,12.25,46V45.1A3.33,3.33,0,0,1,9.1,41.78Z"/><path class="cls-4" d="M12.68,46a4.33,4.33,0,0,0,1.4-.31v-1a3.18,3.18,0,0,1-1.4.42Z"/><path class="cls-8" d="M12.68,42.47v1.76a3.39,3.39,0,0,0,1.4-.56V42.46h-1.4Z"/><path class="cls-8" d="M14.51,42.46v.85a3.4,3.4,0,0,0,.61-.85Z"/><path class="cls-8" d="M12.43,38.7a3.07,3.07,0,0,0-2.72,4.49,3.32,3.32,0,0,0,2.44,1.09h.1v-2l.06-.07.2-.19H15.3a3.05,3.05,0,0,0,.16-.74A3.09,3.09,0,0,0,12.43,38.7Z"/><path class="cls-9" d="M15.7,42.46h-.58a3.4,3.4,0,0,1-.61.85v1.07A3.33,3.33,0,0,0,15.7,42.46Z"/><path class="cls-9" d="M12.43,38.44a3.33,3.33,0,0,0-.18,6.66v-.83h-.1a3.32,3.32,0,0,1-2.44-1.09,3.07,3.07,0,1,1,5.75-1.9,3.05,3.05,0,0,1-.16.74h.45c0-.09,0-.17,0-.25A3.34,3.34,0,0,0,12.43,38.44Z"/><path class="cls-9" d="M12.68,45.09a3.18,3.18,0,0,0,1.4-.42v-1a3.39,3.39,0,0,1-1.4.56Z"/><path class="cls-4" d="M25.79,56A4.2,4.2,0,1,0,30,60.19,4.19,4.19,0,0,0,25.79,56Zm0,7.53a3.34,3.34,0,1,1,3.34-3.34A3.34,3.34,0,0,1,25.79,63.53Z"/><path class="cls-8" d="M25.79,57.12a3.07,3.07,0,0,0-3.08,3.07,3,3,0,0,0,.36,1.41,3.31,3.31,0,0,0,5.75-1.9A3.08,3.08,0,0,0,25.79,57.12Z"/><path class="cls-9" d="M25.79,56.86a3.34,3.34,0,1,0,3.34,3.33A3.34,3.34,0,0,0,25.79,56.86Zm-.28,5.83a3.32,3.32,0,0,1-2.44-1.09,3,3,0,0,1-.36-1.41,3.08,3.08,0,0,1,6.11-.49A3.34,3.34,0,0,1,25.51,62.69Z"/><path class="cls-4" d="M12.43,56a4.2,4.2,0,1,0,4.2,4.19A4.2,4.2,0,0,0,12.43,56Zm0,7.53a3.34,3.34,0,1,1,3.34-3.34A3.33,3.33,0,0,1,12.43,63.53Z"/><path class="cls-8" d="M12.43,57.12A3.06,3.06,0,0,0,9.71,61.6a3.31,3.31,0,0,0,5.75-1.9A3.07,3.07,0,0,0,12.43,57.12Z"/><path class="cls-9" d="M12.43,56.86a3.34,3.34,0,1,0,3.34,3.33A3.33,3.33,0,0,0,12.43,56.86Zm-.28,5.83A3.32,3.32,0,0,1,9.71,61.6a3.06,3.06,0,0,1,2.72-4.48,3.07,3.07,0,0,1,3,2.58A3.33,3.33,0,0,1,12.15,62.69Z"/><polygon class="cls-10" points="2.17 15.49 2.17 15.81 2.17 15.83 2.17 16.87 2.18 16.87 2.18 15.49 2.17 15.49"/><polygon class="cls-10" points="51.02 16.87 51.02 16.87 51.02 15.83 51.02 15.81 51.02 15.49 51.02 15.49 51.02 16.87"/><rect class="cls-11" x="2.18" y="15.49" width="48.84" height="1.39"/><path class="cls-4" d="M51,15.49h.55a.31.31,0,0,0,.31-.31V12.34a.31.31,0,0,0-.31-.31H1.62a.31.31,0,0,0-.31.31v2.84a.31.31,0,0,0,.31.31H51Z"/><polygon class="cls-9" points="19.96 42.46 19.96 45.29 21.34 48.03 21.34 45.16 19.98 42.46 19.96 42.46"/><polygon class="cls-9" points="21.77 48.89 22.02 49.38 23.15 49.38 23.15 48.75 21.77 46.01 21.77 48.89"/><polygon class="cls-9" points="19.52 44.44 19.52 42.46 18.52 42.46 19.52 44.44"/><polygon class="cls-9" points="15.05 32.69 13.59 32.69 18.31 42.02 19.76 42.02 15.05 32.69"/><polygon class="cls-12" points="44.98 49.27 44.98 50.73 45.12 50.86 49.17 50.86 49.3 50.73 49.3 49.27 49.17 49.13 45.12 49.13 44.98 49.27"/><polygon class="cls-12" points="37.42 30.04 37.42 31.39 37.68 31.39 37.68 29.9 37.55 29.9 37.42 30.04"/><rect class="cls-12" x="38.11" y="29.9" width="1.42" height="1.49"/><polygon class="cls-12" points="40.5 31.39 40.63 31.53 40.63 31.63 41.61 31.63 41.74 31.5 41.74 30.04 41.61 29.9 39.96 29.9 39.96 31.39 40.5 31.39"/><polygon class="cls-13" points="42.26 30.04 42.26 31.5 42.4 31.63 46.45 31.63 46.58 31.5 46.58 30.04 46.45 29.9 42.4 29.9 42.26 30.04"/><polygon class="cls-12" points="47.16 67.22 47.16 68.68 47.29 68.82 51.02 68.82 51.02 67.09 47.29 67.09 47.16 67.22"/><polygon class="cls-13" points="40.5 32.69 39.42 32.69 39.42 33.78 39.55 33.92 43.6 33.92 43.74 33.78 43.74 32.33 43.6 32.19 40.63 32.19 40.63 32.56 40.5 32.69"/><polygon class="cls-13" points="4.76 25.88 4.76 24.42 4.63 24.29 2.18 24.29 2.18 26.01 4.63 26.01 4.76 25.88"/><polygon class="cls-12" points="48.95 22.86 48.82 23 48.82 24.46 48.95 24.59 51.02 24.59 51.02 22.86 48.95 22.86"/><polygon class="cls-13" points="4.27 66.25 4.27 64.79 4.13 64.66 2.18 64.66 2.18 66.39 4.13 66.39 4.27 66.25"/><polygon class="cls-14" points="42.01 51.34 41.87 51.47 41.87 52.93 42.01 53.07 46.06 53.07 46.19 52.93 46.19 51.47 46.06 51.34 42.01 51.34"/><polygon class="cls-13" points="9.25 53 9.25 51.54 9.12 51.41 5.06 51.41 4.93 51.54 4.93 53 5.06 53.14 9.12 53.14 9.25 53"/><polygon class="cls-13" points="9.83 51.54 9.83 53 9.97 53.14 14.02 53.14 14.16 53 14.16 51.54 14.02 51.41 9.97 51.41 9.83 51.54"/><polygon class="cls-12" points="6.66 49.15 6.53 49.28 6.53 50.74 6.66 50.87 10.71 50.87 10.85 50.74 10.85 49.28 10.71 49.15 6.66 49.15"/><polygon class="cls-13" points="9.36 33.51 9.49 33.37 9.49 31.91 9.36 31.78 5.31 31.78 5.17 31.91 5.17 33.37 5.31 33.51 9.36 33.51"/><polygon class="cls-12" points="12.22 35.71 12.22 34.25 12.08 34.11 8.03 34.11 7.9 34.25 7.9 35.71 8.03 35.84 12.08 35.84 12.22 35.71"/><polygon class="cls-14" points="6.29 68.82 6.43 68.68 6.43 67.22 6.29 67.09 2.24 67.09 2.18 67.15 2.18 68.75 2.24 68.82 6.29 68.82"/><polygon class="cls-14" points="19.23 67.09 19.09 67.22 19.09 68.68 19.23 68.82 23.28 68.82 23.42 68.68 23.42 67.22 23.28 67.09 19.23 67.09"/><path class="cls-15" d="M39.42,32.69H40.5l.13-.13v-1l-.13-.13H40V24.31l-.19-.2-.07-.06H12.51l-.2.19-.06.07V31.4h-.53l-.14.13v1l.14.13h27.7ZM38.11,29.9V24.48h1.42V31.4H38.11Zm-1.82-3.08V24.48h1.39V31.4H36.29Zm-1.81-2.34h1.38V31.4H34.48Zm-1.82,0h1.39V31.4H32.66Zm-1.81,0h1.38V31.4H30.85ZM29,26.58v-2.1h1.39V31.4H29Zm-1.81,1.3v-3.4H28.6V31.4H27.22Zm-1.82.23V24.48h1.38V31.4H25.4Zm-1.81-.6v-3H25V31.4H23.59Zm-1.82-2.42v-.61h1.38V31.4H21.77ZM20,24.48h1.38V31.4H20Zm-1.82,0h1.38V31.4H18.14Zm-1.81,1v-1h1.38V31.4H16.33Zm-2.25.34V31.4h-1.4V24.49h1.4Zm.43,1.74v-3.1h1.38V31.4H14.51Z"/><path class="cls-15" d="M40,49.38V42.29l-.19-.2L39.7,42H12.51l-.2.19-.06.07v7.09h-.53l-.14.13v1l.14.13H40.5l.13-.13v-1l-.13-.13ZM14.08,43.67v5.71h-1.4V42.47h1.4Zm1.81.48v5.23H14.51V42.46h1.38Zm1.82,5.23H16.33V42.46h1.38Zm1.81-4.94v4.94H18.14V42.46h1.38Zm1.82.72v4.22H20V42.46h1.38Zm1.81-1.88v6.1H21.77V42.46h1.38Zm1.82.94v5.16H23.59V42.46H25ZM26.78,44v5.35H25.4V42.46h1.38Zm1.82-.46v5.81H27.22V42.46H28.6Zm1.82,5.81H29V42.46h1.39Zm1.81,0H30.85V42.46h1.38Zm1.82,0H32.66V42.46h1.39Zm1.81-5.25v5.25H34.48V42.46h1.38ZM37.68,44v5.42H36.29V42.46h1.39Zm1.85.27v5.15H38.11V42.46h1.42Z"/><rect class="cls-16" x="45.01" y="6.38" width="2.43" height="0.44"/></svg>