<svg id="Layer_1" data-name="Layer 1" xmlns="http://www.w3.org/2000/svg" xmlns:xlink="http://www.w3.org/1999/xlink" viewBox="0 0 100 100"><defs><style>.cls-1{fill:#282832;}.cls-2{clip-path:url(#clip-path);}.cls-10,.cls-11,.cls-12,.cls-13,.cls-3,.cls-4,.cls-5,.cls-6,.cls-8,.cls-9{fill:none;stroke:#dbdbe5;stroke-linecap:round;stroke-miterlimit:10;}.cls-3{stroke-width:0.32px;}.cls-4{stroke-width:0.37px;}.cls-5{stroke-width:0.25px;}.cls-6{stroke-width:0.33px;}.cls-7{fill:#dbdbe5;}.cls-8{stroke-width:0.38px;}.cls-9{stroke-width:0.38px;}.cls-10{stroke-width:0.44px;}.cls-11{stroke-width:0.29px;}.cls-12{stroke-width:0.39px;}.cls-13{stroke-width:0.45px;}.cls-14{fill:#d3e1c9;}.cls-15{fill:#fff;}.cls-16{fill:#ffb446;}</style><clipPath id="clip-path"><circle class="cls-1" cx="50" cy="50" r="50"/></clipPath></defs><title>placeholder_saturn</title><g id="User_Image" data-name="User Image"><circle class="cls-1" cx="50" cy="50" r="50"/><g class="cls-2"><path class="cls-3" d="M89.55,58.56l.18-.14.17-.11s.5.53.2.48l-.3,0"/><line class="cls-4" x1="84.77" y1="49.87" x2="84.58" y2="49.8"/><line class="cls-5" x1="49.9" y1="73.37" x2="49.69" y2="73.21"/><line class="cls-5" x1="86.24" y1="75.76" x2="86.02" y2="75.6"/><line class="cls-5" x1="68.44" y1="47.85" x2="68.22" y2="47.69"/><path class="cls-3" d="M61.63,71v-.43s.73-.06.51.14l-.22.21"/><path class="cls-6" d="M21.6,74.41l.14.19.12.17s.64-.37.34-.42l-.3,0"/><path class="cls-7" d="M55,82.83s-.21-1-.79-.84-.47-.37-.57.18.31,1.54.56,1.38A8.92,8.92,0,0,0,55,82.83Z"/><line class="cls-5" x1="68.98" y1="64.52" x2="68.72" y2="64.44"/><path class="cls-3" d="M19.9,86.71l.12-.19.12-.16s.65.34.35.39l-.3.06"/><path class="cls-7" d="M75.66,78.47s-.9-1-1.42-.3-.77,0-.53.7,1.34,1.51,1.51,1.12A14.62,14.62,0,0,0,75.66,78.47Z"/><line class="cls-5" x1="65.84" y1="89.09" x2="65.62" y2="88.92"/><line class="cls-4" x1="33.19" y1="77.57" x2="33.07" y2="77.74"/><line class="cls-5" x1="44.49" y1="91.35" x2="44.28" y2="91.52"/><path class="cls-7" d="M84.58,62.56s-.76-.72-1.13-.24-.6,0-.36.48,1.15,1.08,1.26.81A9.28,9.28,0,0,0,84.58,62.56Z"/><path class="cls-7" d="M42.51,80s-1.72.33-1.42,1.29-.63.78.29,1,2.57-.49,2.31-.9A13.9,13.9,0,0,0,42.51,80Z"/><line class="cls-4" x1="75.9" y1="72.5" x2="75.73" y2="72.62"/><line class="cls-4" x1="77.5" y1="57.48" x2="77.42" y2="57.67"/><path class="cls-8" d="M57.26,88.74v-.51s.86-.12.61.14l-.25.25"/><line class="cls-5" x1="33.2" y1="88.62" x2="33.03" y2="88.83"/><path class="cls-9" d="M6,49.6l-.21.17-.19.15s-.62-.62-.26-.57l.35,0"/><line class="cls-10" x1="12.02" y1="59.7" x2="12.26" y2="59.78"/><line class="cls-11" x1="52.36" y1="30.21" x2="52.63" y2="30.39"/><line class="cls-11" x1="9.1" y1="29.02" x2="9.37" y2="29.2"/><line class="cls-11" x1="31.51" y1="61.36" x2="31.77" y2="61.54"/><path class="cls-9" d="M38.54,33.54v.51s-.87.1-.61-.15l.25-.25"/><path class="cls-12" d="M85.92,27.7l-.16-.22-.15-.2s-.75.47-.39.52l.35,0"/><path class="cls-7" d="M45.91,19.21s.3,1.21,1,1,.58.42.67-.24-.44-1.82-.72-1.62A10.31,10.31,0,0,0,45.91,19.21Z"/><line class="cls-11" x1="30.12" y1="41.59" x2="30.43" y2="41.68"/><path class="cls-9" d="M87.39,13l-.14.23-.13.2s-.79-.38-.44-.45l.35-.08"/><path class="cls-7" d="M21.55,25.32s1.1,1.16,1.7.3.91,0,.59-.85S22.19,23,22,23.5,21.55,25.32,21.55,25.32Z"/><line class="cls-11" x1="32.72" y1="12.27" x2="32.99" y2="12.46"/><line class="cls-10" x1="72.02" y1="24.48" x2="72.15" y2="24.26"/><line class="cls-11" x1="57.98" y1="8.61" x2="58.22" y2="8.41"/><path class="cls-7" d="M11.67,44.63s.94.81,1.35.23.71,0,.41-.59-1.41-1.22-1.53-.9A10.73,10.73,0,0,0,11.67,44.63Z"/><path class="cls-7" d="M60.84,22s2-.47,1.64-1.6.71-.95-.39-1.13-3,.71-2.71,1.18A17.7,17.7,0,0,0,60.84,22Z"/><line class="cls-10" x1="21.53" y1="32.43" x2="21.72" y2="32.28"/><line class="cls-10" x1="20.31" y1="50.34" x2="20.39" y2="50.1"/><path class="cls-13" d="M42.93,12.3v.6s-1,.18-.73-.14l.29-.31"/><line class="cls-11" x1="71.51" y1="11.34" x2="71.7" y2="11.09"/><g id="Saturn"><circle class="cls-14" cx="48.32" cy="49.78" r="18.9"/><circle class="cls-15" cx="39.98" cy="46.63" r="3.86"/><path class="cls-16" d="M85.07,39.21,85.3,39l.32-.36.21-.25.3-.37.15-.21c.14-.18.26-.36.37-.53a1.1,1.1,0,0,0,.09-.14l.23-.39.09-.19a3.73,3.73,0,0,0,.16-.35.94.94,0,0,0,.06-.15,4.26,4.26,0,0,0,.15-.47.13.13,0,0,1,0-.06,2.65,2.65,0,0,0,0-.38V35a1.51,1.51,0,0,0,0-.3s0-.08,0-.12a1.6,1.6,0,0,0-.12-.37,1.51,1.51,0,0,0-.15-.28l-.06-.08a1.22,1.22,0,0,0-.15-.17l-.13-.12-.12-.11-.19-.12-.12-.08-.22-.11-.13-.06L85.8,33l-.12,0-.33-.1-.11,0-.39-.08-.1,0-.47-.07h-.06l-.52-.05h0c-4.37-.31-12.1,1.31-21.39,4.46a19.34,19.34,0,0,1,1.39,1.72l.36-.09h0c3.85-.94,7-1.32,9-1h0l.55.1.07,0,.42.12.11,0a2.22,2.22,0,0,1,.31.13l.14.09a1.48,1.48,0,0,1,.21.13c.06,0,.1.1.15.15a.68.68,0,0,1,.12.12,1.17,1.17,0,0,1,.19.3,1.33,1.33,0,0,1,.1.34.37.37,0,0,0,0,.11,2.26,2.26,0,0,1,0,.26s0,.09,0,.14,0,.17-.05.26,0,.1,0,.15-.07.19-.11.29l-.06.15a3.79,3.79,0,0,1-.18.34l-.06.12a10.49,10.49,0,0,1-.73,1l0,0-.45.52-.08.09-.47.48a.94.94,0,0,0-.1.1l-.55.51a.6.6,0,0,1-.08.08,43.57,43.57,0,0,1-5.26,4h0A110.33,110.33,0,0,1,51.47,56.2a108.49,108.49,0,0,1-17.26,6.15l-1.16.28h0L32,62.86l-.24,0-.78.15-.3,0-.68.12-.31,0-.62.09-.3,0-.6.06-.27,0-.59,0h-.21l-.74,0h0l-.7,0h-.14l-.47,0-.2,0-.36-.06-.2,0L24,63.27l-.18-.06-.25-.11L23.38,63l-.2-.14-.12-.08a1,1,0,0,1-.18-.17l-.08-.09a1.75,1.75,0,0,1-.18-.29,1.39,1.39,0,0,1-.1-.33s0-.08,0-.12,0-.16,0-.25,0-.1,0-.15,0-.16,0-.25a.75.75,0,0,0,.05-.16l.09-.26c0-.06.06-.12.08-.17l.14-.28a1.74,1.74,0,0,1,.11-.18,2.38,2.38,0,0,1,.18-.3l.13-.18c.07-.11.15-.21.23-.32l.15-.18c.09-.12.18-.23.28-.34l.17-.19.33-.36.19-.18c.12-.13.25-.25.38-.38l.2-.19.44-.4.21-.18.48-.42a2.11,2.11,0,0,0,.23-.19l.53-.42.24-.19.58-.44.25-.19.62-.45.27-.2.75-.53c-.14-.67-.26-1.35-.34-2.05L28,52.76h0l-.16.1-1.57,1-.32.19-1.5,1-.28.18-1.43,1-.22.15c-.48.33-.94.65-1.38,1l-.16.12-1.33,1-.07.06-1.23,1-.07.06c-.39.31-.75.62-1.11.93l-.11.1q-.51.44-1,.87l-.12.11c-.3.28-.57.55-.83.82l-.12.13c-.25.26-.48.52-.69.77l-.11.12c-.2.25-.39.5-.56.73l-.09.12c-.16.24-.31.47-.43.69l-.06.1c-.12.23-.22.44-.31.65l0,.09a3.67,3.67,0,0,0-.16.61.13.13,0,0,0,0,.06,2.21,2.21,0,0,0,0,.57v0a2,2,0,0,0,.14.54,1.38,1.38,0,0,0,.2.33l.07.09a2.49,2.49,0,0,0,.23.23l.07.06a3.27,3.27,0,0,0,.36.25l.09,0a3,3,0,0,0,.36.17l.14,0a2.76,2.76,0,0,0,.46.15l.06,0a5.13,5.13,0,0,0,.59.12l.18,0c.17,0,.33.05.51.06l.19,0,.72.05H18l.68,0h.2c.29,0,.59,0,.9-.07l.3,0,.7-.07.34,0c.33,0,.66-.08,1-.14l.22,0,.88-.15.41-.07.79-.15.38-.07L25.89,68l.42-.1.84-.19.48-.11,1-.25.49-.12L30.17,67l.54-.14.88-.25.53-.15L33.43,66l.5-.16,1-.29.61-.19,1-.34a179.33,179.33,0,0,0,16.91-6.58C58.35,56.27,63,54,67.12,51.69h0L68.31,51,68.4,51q2.35-1.32,4.49-2.62l.12-.07q2.07-1.27,3.9-2.51l.21-.14.81-.55L78,45c.55-.38,1.07-.76,1.57-1.13l.1-.07.63-.47.31-.24.56-.44.31-.24c.31-.25.61-.49.89-.73l.33-.28.41-.36.35-.31.37-.34.35-.33.3-.29Z"/></g></g></g></svg>