<svg id="Layer_1" data-name="Layer 1" xmlns="http://www.w3.org/2000/svg" viewBox="0 0 16 14.39"><defs><style>.cls-1{fill:#fff;}</style></defs><title>Artboard 1</title><path class="cls-1" d="M16,4.8H14.39V6.41H16V8H14.39V9.59H16V11.2H14.39v1.58a1.6,1.6,0,0,1-1.61,1.61H1.61a1.55,1.55,0,0,1-1.14-.47A1.55,1.55,0,0,1,0,12.78V1.61A1.55,1.55,0,0,1,.47.47,1.55,1.55,0,0,1,1.61,0H12.78a1.55,1.55,0,0,1,1.14.47,1.55,1.55,0,0,1,.47,1.14V3.19H16Zm-3.22,8V1.61H1.61V12.78ZM3.19,3.19h4v4h-4ZM3.19,8h4V11.2h-4ZM8,3.21H11.2v2.4H8ZM8,6.52H11.2v4.8H8Z"/></svg>